<mxfile host="app.diagrams.net" modified="2022-02-11T10:56:00.100Z" agent="5.0 (Windows NT 10.0; Win64; x64) AppleWebKit/537.36 (KHTML, like Gecko) Chrome/98.0.4758.80 Safari/537.36 Edg/98.0.1108.42" etag="MEc5Lb9lFgENcU_yUYk0" version="15.5.1" type="github">
  <diagram name="Page-1" id="7a6c530e-6e37-e111-ec74-82921da8cc10">
    <mxGraphModel dx="976" dy="654" grid="1" gridSize="10" guides="1" tooltips="1" connect="1" arrows="1" fold="1" page="1" pageScale="1.5" pageWidth="1169" pageHeight="826" background="#184380" math="0" shadow="0">
      <root>
        <mxCell id="0" style=";html=1;" />
        <mxCell id="1" style=";html=1;" parent="0" />
        <mxCell id="23046e2b9bb16c14-82" value="B" style="text;html=1;strokeColor=none;fillColor=none;align=center;verticalAlign=middle;whiteSpace=wrap;rounded=1;shadow=0;fontSize=11;fontColor=#FFFFFF;fontStyle=1" parent="1" vertex="1">
          <mxGeometry x="1226" y="678" width="20" height="20" as="geometry" />
        </mxCell>
        <mxCell id="AaKXk8wZwZUjWJwKBfMZ-3" value="" style="rounded=1;whiteSpace=wrap;html=1;shadow=0;strokeWidth=2;fillColor=#d5e8d4;fontSize=12;align=center;strokeColor=#82b366;arcSize=3;" vertex="1" parent="1">
          <mxGeometry x="70" y="70" width="460" height="240" as="geometry" />
        </mxCell>
        <mxCell id="AaKXk8wZwZUjWJwKBfMZ-4" value="" style="endArrow=blockThin;startArrow=blockThin;html=1;rounded=0;exitX=0.5;exitY=0;exitDx=0;exitDy=0;entryX=0;entryY=0.5;entryDx=0;entryDy=0;startFill=1;endFill=1;" edge="1" parent="1" source="AaKXk8wZwZUjWJwKBfMZ-15" target="AaKXk8wZwZUjWJwKBfMZ-12">
          <mxGeometry width="50" height="50" relative="1" as="geometry">
            <mxPoint x="270" y="140" as="sourcePoint" />
            <mxPoint x="400" y="37.08890904967109" as="targetPoint" />
            <Array as="points">
              <mxPoint x="127" y="105" />
            </Array>
          </mxGeometry>
        </mxCell>
        <mxCell id="AaKXk8wZwZUjWJwKBfMZ-5" value="" style="endArrow=blockThin;startArrow=blockThin;html=1;rounded=0;exitX=0.5;exitY=0;exitDx=0;exitDy=0;startFill=1;endFill=1;entryX=0.273;entryY=0.857;entryDx=0;entryDy=0;entryPerimeter=0;" edge="1" parent="1" source="AaKXk8wZwZUjWJwKBfMZ-51" target="AaKXk8wZwZUjWJwKBfMZ-12">
          <mxGeometry width="50" height="50" relative="1" as="geometry">
            <mxPoint x="434.57843879629627" y="111.0723912499999" as="sourcePoint" />
            <mxPoint x="280" y="105" as="targetPoint" />
          </mxGeometry>
        </mxCell>
        <mxCell id="AaKXk8wZwZUjWJwKBfMZ-6" value="" style="endArrow=blockThin;startArrow=blockThin;html=1;rounded=0;exitX=1;exitY=0.5;exitDx=0;exitDy=0;entryX=0.5;entryY=0;entryDx=0;entryDy=0;startFill=1;endFill=1;" edge="1" parent="1" source="AaKXk8wZwZUjWJwKBfMZ-12" target="AaKXk8wZwZUjWJwKBfMZ-57">
          <mxGeometry width="50" height="50" relative="1" as="geometry">
            <mxPoint x="438.3599999999999" y="35.505259156000534" as="sourcePoint" />
            <mxPoint x="511.5250000000001" y="110" as="targetPoint" />
            <Array as="points">
              <mxPoint x="437" y="105" />
            </Array>
          </mxGeometry>
        </mxCell>
        <mxCell id="AaKXk8wZwZUjWJwKBfMZ-12" value="" style="image;html=1;image=img/lib/clip_art/networking/Switch_128x128.png" vertex="1" parent="1">
          <mxGeometry x="250" y="70" width="110" height="70" as="geometry" />
        </mxCell>
        <mxCell id="AaKXk8wZwZUjWJwKBfMZ-37" value="&lt;span style=&quot;color: rgb(108, 118, 125); font-family: helvetica; font-size: 10px; font-style: normal; font-weight: 400; letter-spacing: normal; text-align: left; text-indent: 0px; text-transform: none; word-spacing: 0px; background-color: rgb(248, 249, 250); display: inline; float: none;&quot;&gt;方案二：&lt;/span&gt;&lt;br style=&quot;color: rgb(108, 118, 125); font-family: helvetica; font-size: 10px; font-style: normal; font-weight: 400; letter-spacing: normal; text-align: left; text-indent: 0px; text-transform: none; word-spacing: 0px; background-color: rgb(248, 249, 250);&quot;&gt;&lt;span style=&quot;color: rgb(108, 118, 125); font-family: helvetica; font-size: 10px; font-style: normal; font-weight: 400; letter-spacing: normal; text-align: left; text-indent: 0px; text-transform: none; word-spacing: 0px; background-color: rgb(248, 249, 250); display: inline; float: none;&quot;&gt;1、Master采用主备结构。&lt;/span&gt;" style="text;whiteSpace=wrap;html=1;fontSize=10;fontColor=#5C5C5C;" vertex="1" parent="1">
          <mxGeometry x="70" y="320" width="160" height="40" as="geometry" />
        </mxCell>
        <mxCell id="AaKXk8wZwZUjWJwKBfMZ-38" value="&lt;span style=&quot;color: rgb(108, 118, 125); font-family: helvetica; font-size: 12px; font-style: normal; font-weight: 400; letter-spacing: normal; text-align: left; text-indent: 0px; text-transform: none; word-spacing: 0px; background-color: rgb(248, 249, 250); display: inline; float: none;&quot;&gt;方案一：&lt;/span&gt;" style="text;whiteSpace=wrap;html=1;fontSize=12;fontColor=#5C5C5C;" vertex="1" parent="1">
          <mxGeometry x="70" y="40" width="60" height="30" as="geometry" />
        </mxCell>
        <mxCell id="AaKXk8wZwZUjWJwKBfMZ-40" value="" style="sketch=0;shadow=0;dashed=0;html=1;strokeColor=none;fillColor=#505050;labelPosition=center;verticalLabelPosition=bottom;verticalAlign=top;outlineConnect=0;align=center;shape=mxgraph.office.databases.database_mirror_witness_node;rounded=0;fontSize=12;fontColor=#5C5C5C;" vertex="1" parent="1">
          <mxGeometry x="370" y="460" width="60" height="59" as="geometry" />
        </mxCell>
        <mxCell id="AaKXk8wZwZUjWJwKBfMZ-49" value="" style="group" vertex="1" connectable="0" parent="1">
          <mxGeometry x="80" y="190" width="117.11000000000001" height="114.91" as="geometry" />
        </mxCell>
        <mxCell id="AaKXk8wZwZUjWJwKBfMZ-15" value="" style="aspect=fixed;perimeter=ellipsePerimeter;html=1;align=center;shadow=0;dashed=0;spacingTop=3;image;image=img/lib/active_directory/database_server.svg;" vertex="1" parent="AaKXk8wZwZUjWJwKBfMZ-49">
          <mxGeometry width="94.23" height="114.91" as="geometry" />
        </mxCell>
        <mxCell id="AaKXk8wZwZUjWJwKBfMZ-48" value="" style="group" vertex="1" connectable="0" parent="AaKXk8wZwZUjWJwKBfMZ-49">
          <mxGeometry x="37.110000000000014" y="40" width="80" height="69" as="geometry" />
        </mxCell>
        <mxCell id="AaKXk8wZwZUjWJwKBfMZ-39" value="" style="sketch=0;shadow=0;dashed=0;html=1;strokeColor=none;fillColor=#505050;labelPosition=center;verticalLabelPosition=bottom;verticalAlign=top;outlineConnect=0;align=center;shape=mxgraph.office.databases.database_mirror_witness_node;rounded=0;fontSize=12;fontColor=#5C5C5C;" vertex="1" parent="AaKXk8wZwZUjWJwKBfMZ-48">
          <mxGeometry y="10" width="60" height="59" as="geometry" />
        </mxCell>
        <mxCell id="AaKXk8wZwZUjWJwKBfMZ-47" value="" style="sketch=0;shadow=0;dashed=0;html=1;strokeColor=none;fillColor=#505050;labelPosition=center;verticalLabelPosition=bottom;verticalAlign=top;outlineConnect=0;align=center;shape=mxgraph.office.databases.database_mirror_witness_node;rounded=0;fontSize=12;fontColor=#5C5C5C;" vertex="1" parent="AaKXk8wZwZUjWJwKBfMZ-48">
          <mxGeometry x="20" width="60" height="59" as="geometry" />
        </mxCell>
        <mxCell id="AaKXk8wZwZUjWJwKBfMZ-19" value="" style="shape=image;verticalLabelPosition=bottom;labelBackgroundColor=#ffffff;verticalAlign=top;aspect=fixed;imageAspect=0;image=data:image/svg+xml,PHN2ZyB4bWxuczpjYz0iaHR0cDovL2NyZWF0aXZlY29tbW9ucy5vcmcvbnMjIiB4bWxuczpkYz0iaHR0cDovL3B1cmwub3JnL2RjL2VsZW1lbnRzLzEuMS8iIHhtbG5zOmlua3NjYXBlPSJodHRwOi8vd3d3Lmlua3NjYXBlLm9yZy9uYW1lc3BhY2VzL2lua3NjYXBlIiB4bWxuczpyZGY9Imh0dHA6Ly93d3cudzMub3JnLzE5OTkvMDIvMjItcmRmLXN5bnRheC1ucyMiIHhtbG5zOnNvZGlwb2RpPSJodHRwOi8vc29kaXBvZGkuc291cmNlZm9yZ2UubmV0L0RURC9zb2RpcG9kaS0wLmR0ZCIgeG1sbnM6c3ZnPSJodHRwOi8vd3d3LnczLm9yZy8yMDAwL3N2ZyIgeG1sbnM9Imh0dHA6Ly93d3cudzMub3JnLzIwMDAvc3ZnIiB4bWxuczp4bGluaz0iaHR0cDovL3d3dy53My5vcmcvMTk5OS94bGluayIgdmVyc2lvbj0iMS4xIiBpZD0ic3ZnMTAyNzIyIiBpbmtzY2FwZTp2ZXJzaW9uPSIwLjkyLjMgKDI0MDU1NDYsIDIwMTgtMDMtMTEpIiBzb2RpcG9kaTpkb2NuYW1lPSJwb3N0Z3Jlc3FsLnN2ZyIgeD0iMHB4IiB5PSIwcHgiIHZpZXdCb3g9IjAgMCA0Ni4wMyA2MC40NyIgc3R5bGU9ImVuYWJsZS1iYWNrZ3JvdW5kOm5ldyAwIDAgNDYuMDMgNjAuNDc7IiB4bWw6c3BhY2U9InByZXNlcnZlIj4mI3hhOzxzb2RpcG9kaTpuYW1lZHZpZXcgYm9yZGVyY29sb3I9IiM2NjY2NjYiIGJvcmRlcm9wYWNpdHk9IjEiIGZpdC1tYXJnaW4tYm90dG9tPSIwIiBmaXQtbWFyZ2luLWxlZnQ9IjAiIGZpdC1tYXJnaW4tcmlnaHQ9IjAiIGZpdC1tYXJnaW4tdG9wPSIwIiBncmlkdG9sZXJhbmNlPSIxMCIgZ3VpZGV0b2xlcmFuY2U9IjEwIiBpZD0ibmFtZWR2aWV3MTAyNzI0IiBpbmtzY2FwZTpjdXJyZW50LWxheWVyPSJzdmcxMDI3MjIiIGlua3NjYXBlOmN4PSIzMC42ODk5ODMiIGlua3NjYXBlOmN5PSI0MC4zMTQ2NDUiIGlua3NjYXBlOnBhZ2VvcGFjaXR5PSIwIiBpbmtzY2FwZTpwYWdlc2hhZG93PSIyIiBpbmtzY2FwZTp3aW5kb3ctaGVpZ2h0PSIxMDE3IiBpbmtzY2FwZTp3aW5kb3ctbWF4aW1pemVkPSIxIiBpbmtzY2FwZTp3aW5kb3ctd2lkdGg9IjE5MjAiIGlua3NjYXBlOndpbmRvdy14PSItOCIgaW5rc2NhcGU6d2luZG93LXk9Ii04IiBpbmtzY2FwZTp6b29tPSIxMC40OTMzMTUiIG9iamVjdHRvbGVyYW5jZT0iMTAiIHBhZ2Vjb2xvcj0iI2ZmZmZmZiIgc2hvd2dyaWQ9ImZhbHNlIj4mI3hhOwk8L3NvZGlwb2RpOm5hbWVkdmlldz4mI3hhOzxnIGlkPSJnMTAyNzIwIiB0cmFuc2Zvcm09InRyYW5zbGF0ZSgtMC43NSwtMC43NTQ4KSI+JiN4YTsJPHRpdGxlIGlkPSJ0aXRsZTEwMjYwNSI+UGFnZS0xPC90aXRsZT4mI3hhOwk8ZyBpZD0iZ3JvdXAzNzA0LTEiIHRyYW5zZm9ybT0idHJhbnNsYXRlKDAuNzUsLTAuNzUpIj4mI3hhOwkJPHRpdGxlIGlkPSJ0aXRsZTEwMjYwNyI+UG9zdGdyZVNRTC42MzM8L3RpdGxlPiYjeGE7CQk8ZyBpZD0iZ3JvdXAzNzA1LTIiPiYjeGE7CQkJPHRpdGxlIGlkPSJ0aXRsZTEwMjYwOSI+Q0hlY2ttYXJrXzI8L3RpdGxlPiYjeGE7CQkJPGcgaWQ9InNoYXBlMzcwNi0zIj4mI3hhOwkJCQk8dGl0bGUgaWQ9InRpdGxlMTAyNjExIj5wYXRoMzY4NjwvdGl0bGU+JiN4YTsJCQkJPGcgaWQ9InNoYWRvdzM3MDYtNCI+JiN4YTsJCQkJPC9nPiYjeGE7CQkJCTxwYXRoIGlkPSJwYXRoMTAyNjE0IiBpbmtzY2FwZTpjb25uZWN0b3ItY3VydmF0dXJlPSIwIiBzdHlsZT0iZmlsbDojMzk5OEM1OyIgZD0iTTAsOS41NHY0NC4zMmMwLDQuNjYsMTAuMjgsOC4xMSwyMi44OCw4LjExICAgICAgVjkuNTRIMHoiLz4mI3hhOwkJCTwvZz4mI3hhOwkJCTxnIGlkPSJzaGFwZTM3MDctNiIgdHJhbnNmb3JtPSJ0cmFuc2xhdGUoMjIuODc5MykiPiYjeGE7CQkJCTx0aXRsZSBpZD0idGl0bGUxMDI2MTciPnBhdGgzNjg4PC90aXRsZT4mI3hhOwkJCQk8ZyBpZD0ic2hhZG93MzcwNy03Ij4mI3hhOwkJCQk8L2c+JiN4YTsJCQkJPHBhdGggaWQ9InBhdGgxMDI2MjAiIGlua3NjYXBlOmNvbm5lY3Rvci1jdXJ2YXR1cmU9IjAiIHN0eWxlPSJmaWxsOiM1OUIzRDg7IiBkPSJNMCw2MS45N2gwLjEyYzEyLjUyLDAsMjIuNzYtMy42NiwyMi43Ni04LjMxICAgICAgVjkuNTRIMFY2MS45N3oiLz4mI3hhOwkJCTwvZz4mI3hhOwkJCTxnIGlkPSJzaGFwZTM3MDgtOSIgdHJhbnNmb3JtPSJ0cmFuc2xhdGUoMCwtNDMuNzg1MikiPiYjeGE7CQkJCTx0aXRsZSBpZD0idGl0bGUxMDI2MjMiPnBhdGgzNjkwPC90aXRsZT4mI3hhOwkJCQk8ZyBpZD0ic2hhZG93MzcwOC0xMCI+JiN4YTsJCQkJPC9nPiYjeGE7CQkJCTxwYXRoIGlkPSJwYXRoMTAyNjI2IiBpbmtzY2FwZTpjb25uZWN0b3ItY3VydmF0dXJlPSIwIiBzdHlsZT0iZmlsbDojRkZGRkZGOyIgZD0iTTQ2LjAzLDUzLjY0YzAsNC41MS0xMC4zMSw4LjMzLTIyLjk1LDguMzMgICAgICBTMCw1OC4xNSwwLDUzLjY0YzAtNC41MiwxMC4zMS04LjM1LDIyLjk2LTguMzVDMzUuNiw0NS4yOSw0Ni4wMyw0OS4xLDQ2LjAzLDUzLjY0eiIvPiYjeGE7CQkJPC9nPiYjeGE7CQkJPGcgaWQ9InNoYXBlMzcwOS0xMiIgdHJhbnNmb3JtPSJ0cmFuc2xhdGUoNC42NjE2NSwtNDcuMDkzMikiPiYjeGE7CQkJCTx0aXRsZSBpZD0idGl0bGUxMDI2MjkiPnBhdGgzNjkyPC90aXRsZT4mI3hhOwkJCQk8ZyBpZD0ic2hhZG93MzcwOS0xMyI+JiN4YTsJCQkJPC9nPiYjeGE7CQkJCTxwYXRoIGlkPSJwYXRoMTAyNjMyIiBpbmtzY2FwZTpjb25uZWN0b3ItY3VydmF0dXJlPSIwIiBzdHlsZT0iZmlsbDojN0ZCOTAwOyIgZD0iTTM2LjcxLDU2LjQ1YzAsMy4wNy04LjIzLDUuNTItMTguMjksNS41MiAgICAgIEM4LjM1LDYxLjk3LDAsNTkuNTYsMCw1Ni40NXM4LjIzLTUuNTIsMTguMjktNS41MkMyOC4zNiw1MC45MywzNi43MSw1My4zOCwzNi43MSw1Ni40NXoiLz4mI3hhOwkJCTwvZz4mI3hhOwkJCTxnIGlkPSJzaGFwZTM3MTAtMTUiIHRyYW5zZm9ybT0idHJhbnNsYXRlKDQuNjYxNjUsLTQ5LjI5NTMpIj4mI3hhOwkJCQk8dGl0bGUgaWQ9InRpdGxlMTAyNjM1Ij5wYXRoMzY5NDwvdGl0bGU+JiN4YTsJCQkJPGcgaWQ9InNoYWRvdzM3MTAtMTYiPiYjeGE7CQkJCTwvZz4mI3hhOwkJCQk8cGF0aCBpZD0icGF0aDEwMjYzOCIgaW5rc2NhcGU6Y29ubmVjdG9yLWN1cnZhdHVyZT0iMCIgc3R5bGU9ImZpbGw6I0I3RDMzMjsiIGQ9Ik0zMi43OCw2MS45N2MyLjQ2LTAuOTYsMy44Mi0yLjA5LDMuODItMy4zMiAgICAgIGMwLTMuMDctOC4yMy01LjUyLTE4LjMtNS41MkM4LjI0LDUzLjEzLDAsNTUuNTgsMCw1OC42NWMwLDEuMjMsMS40OCwyLjQ2LDMuODEsMy4zMmMzLjMyLTEuMzYsOC41OC0yLjA5LDE0LjQ5LTIuMDkgICAgICBjNC45MS0wLjEsOS44MSwwLjYsMTQuNDksMi4wOUgzMi43OHoiLz4mI3hhOwkJCQk8cGF0aCBpZD0icGF0aDEwMjY0MCIgaW5rc2NhcGU6Y29ubmVjdG9yLWN1cnZhdHVyZT0iMCIgc3R5bGU9ImZpbGw6bm9uZTsiIGQ9Ik0zMi43OCw2MS45N2MyLjQ2LTAuOTYsMy44Mi0yLjA5LDMuODItMy4zMiAgICAgIGMwLTMuMDctOC4yMy01LjUyLTE4LjMtNS41MkM4LjI0LDUzLjEzLDAsNTUuNTgsMCw1OC42NWMwLDEuMjMsMS40OCwyLjQ2LDMuODEsMy4zMmMzLjMyLTEuMzYsOC41OC0yLjA5LDE0LjQ5LTIuMDkgICAgICBjNC45MS0wLjEsOS44MSwwLjYsMTQuNDksMi4wOSIvPiYjeGE7CQkJPC9nPiYjeGE7CQkJPGcgaWQ9Imdyb3VwMzcxMS0xOSIgdHJhbnNmb3JtPSJ0cmFuc2xhdGUoNy41NjkyMywtNy40NjQzNikiPiYjeGE7CQkJCTx0aXRsZSBpZD0idGl0bGUxMDI2NDMiPkxheWVyXzM8L3RpdGxlPiYjeGE7CQkJCTxnIGlkPSJzaGFwZTM3MTItMjAiIHRyYW5zZm9ybT0idHJhbnNsYXRlKDAuMDU3MTk4MikiPiYjeGE7CQkJCQk8dGl0bGUgaWQ9InRpdGxlMTAyNjQ1Ij5wYXRoMzY5NjwvdGl0bGU+JiN4YTsJCQkJCTxnIGlkPSJzaGFkb3czNzEyLTIxIj4mI3hhOwkJCQkJPC9nPiYjeGE7CQkJCQk8cGF0aCBpZD0icGF0aDEwMjY0OCIgaW5rc2NhcGU6Y29ubmVjdG9yLWN1cnZhdHVyZT0iMCIgc3R5bGU9ImZpbGw6IzMzNjc5MDsiIGQ9Ik0yOC4zMiw1MC4yM2MtMy42NSwwLjc2LTMuOTEtMC40OC0zLjkxLTAuNDggICAgICAgYzMuODItNS43Miw1LjQ4LTEzLDQuMDgtMTQuNzdjLTMuODEtNC44NS0xMC4zNy0yLjU1LTEwLjQ4LTIuNWMtMC44LTAuMTYtMS42Mi0wLjI1LTIuNDQtMC4yNmMtMS4zNy0wLjA2LTIuNzIsMC4zNS0zLjgyLDEuMTYgICAgICAgYzAsMC0xMS43NS00LjgyLTExLjI0LDYuMDhjMC4xMiwyLjMyLDMuMywxNy41NSw3LjEyLDEyLjk2YzEuNC0xLjY4LDIuNzQtMy4xMSwyLjc0LTMuMTFjMC42OCwwLjQ2LDEuNSwwLjY3LDIuMzIsMC41OSAgICAgICBsMC4wNy0wLjA2Yy0wLjAzLDAuMjItMC4wMywwLjQ0LDAsMC42NmMtMC45NiwxLjExLTAuNywxLjMtMi42NywxLjdjLTEuOTgsMC40LTAuODIsMS4xNC0wLjA2LDEuMzMgICAgICAgYzEuNjcsMC41NCwzLjQ5LTAuMDUsNC41Mi0xLjQ3bC0wLjA2LDAuMjNjMC4zOSwwLjMxLDAuNjYsMi4wMSwwLjYxLDMuNTZjLTAuMTMsMS4xNS0wLjA1LDIuMzEsMC4yMywzLjQzICAgICAgIGMwLjMsMC44MywwLjYxLDIuNjksMy4yLDIuMTRjMi4xNy0wLjQ3LDMuMjktMS42NywzLjQ0LTMuNjhjMC4xMS0xLjQyLDAuMzctMS4yMSwwLjM4LTIuNDhsMC4yMS0wLjYgICAgICAgYzAuMjItMS45MSwwLTIuNTYsMS4zNy0yLjI3aDAuMzJjMS4wMywwLjA0LDIuMDYtMC4xMywzLjAyLTAuNTFjMS42Mi0wLjc1LDIuNTktMi4wMSwwLjk2LTEuNjhMMjguMzIsNTAuMjN6Ii8+JiN4YTsJCQkJPC9nPiYjeGE7CQkJCTxnIGlkPSJzaGFwZTM3MTMtMjMiIHRyYW5zZm9ybT0idHJhbnNsYXRlKDE0LjcyODUsLTAuNDk1NzE4KSI+JiN4YTsJCQkJCTx0aXRsZSBpZD0idGl0bGUxMDI2NTEiPnBhdGgzNjk4PC90aXRsZT4mI3hhOwkJCQkJPGcgaWQ9InNoYWRvdzM3MTMtMjQiPiYjeGE7CQkJCQk8L2c+JiN4YTsJCQkJCTxwYXRoIGlkPSJwYXRoMTAyNjU0IiBpbmtzY2FwZTpjb25uZWN0b3ItY3VydmF0dXJlPSIwIiBzdHlsZT0iZmlsbDpub25lOyIgZD0iTTAuMSw1MS44M2MtMC4xLDMuNiwwLDcuMjIsMC4zOSw4LjEgICAgICAgYzAuMzcsMS41NCwxLjkyLDIuNDgsMy40NSwyLjExQzQuMDIsNjIuMDIsNC4xLDYyLDQuMTgsNjEuOTdjMi4xNy0wLjQ3LDIuOTYtMS4zNywzLjMtMy4zNWMwLjI1LTEuNDYsMC43NC01LjUxLDAuOC02LjM0ICAgICAgIEwwLjEsNTEuODN6Ii8+JiN4YTsJCQkJCSYjeGE7CQkJCQkJPHBhdGggaWQ9InBhdGgxMDI2NTYiIGlua3NjYXBlOmNvbm5lY3Rvci1jdXJ2YXR1cmU9IjAiIHN0eWxlPSJmaWxsOm5vbmU7c3Ryb2tlOiNGRkZGRkY7c3Ryb2tlLXdpZHRoOjAuNzY1O3N0cm9rZS1saW5lY2FwOnJvdW5kO3N0cm9rZS1saW5lam9pbjpyb3VuZDtzdHJva2UtbWl0ZXJsaW1pdDozOyIgZD0iICAgICAgIE0wLjEsNTEuODNjLTAuMSwzLjYsMCw3LjIyLDAuMzksOC4xYzAuMzcsMS41NCwxLjkyLDIuNDgsMy40NSwyLjExQzQuMDIsNjIuMDIsNC4xLDYyLDQuMTgsNjEuOTcgICAgICAgYzIuMTctMC40NywyLjk2LTEuMzcsMy4zLTMuMzVjMC4yNS0xLjQ2LDAuNzQtNS41MSwwLjgtNi4zNCIvPiYjeGE7CQkJCTwvZz4mI3hhOwkJCQk8ZyBpZD0ic2hhcGUzNzE0LTI3IiB0cmFuc2Zvcm09InRyYW5zbGF0ZSgwLC00Ljk5NTMxKSI+JiN4YTsJCQkJCTx0aXRsZSBpZD0idGl0bGUxMDI2NTkiPnBhdGgzNzAwPC90aXRsZT4mI3hhOwkJCQkJPGcgaWQ9InNoYWRvdzM3MTQtMjgiPiYjeGE7CQkJCQk8L2c+JiN4YTsJCQkJCTxwYXRoIGlkPSJwYXRoMTAyNjYyIiBpbmtzY2FwZTpjb25uZWN0b3ItY3VydmF0dXJlPSIwIiBzdHlsZT0iZmlsbDpub25lOyIgZD0iTTExLjc0LDM4LjI3YzAsMC0xMS43NC00Ljc3LTExLjE5LDYuMTEgICAgICAgYzAuMTEsMi4zNSwzLjMyLDE3LjU5LDcuMTMsMTIuOTVjMS40LTEuNjcsMi42Ni0zLDIuNjYtM0wxMS43NCwzOC4yN3oiLz4mI3hhOwkJCQkJJiN4YTsJCQkJCQk8cGF0aCBpZD0icGF0aDEwMjY2NCIgaW5rc2NhcGU6Y29ubmVjdG9yLWN1cnZhdHVyZT0iMCIgc3R5bGU9ImZpbGw6bm9uZTtzdHJva2U6I0ZGRkZGRjtzdHJva2Utd2lkdGg6MC43NjU7c3Ryb2tlLWxpbmVjYXA6cm91bmQ7c3Ryb2tlLWxpbmVqb2luOnJvdW5kO3N0cm9rZS1taXRlcmxpbWl0OjM7IiBkPSIgICAgICAgTTExLjc0LDM4LjI3YzAsMC0xMS43NC00Ljc3LTExLjE5LDYuMTFjMC4xMSwyLjM1LDMuMzIsMTcuNTksNy4xMywxMi45NWMxLjQtMS42NywyLjY2LTMsMi42Ni0zIi8+JiN4YTsJCQkJPC9nPiYjeGE7CQkJCTxnIGlkPSJzaGFwZTM3MTUtMzEiIHRyYW5zZm9ybT0idHJhbnNsYXRlKDE3LjY1NTIsLTEyLjI2OSkiPiYjeGE7CQkJCQk8dGl0bGUgaWQ9InRpdGxlMTAyNjY3Ij5wYXRoMzcwMjwvdGl0bGU+JiN4YTsJCQkJCTxnIGlkPSJzaGFkb3czNzE1LTMyIj4mI3hhOwkJCQkJPC9nPiYjeGE7CQkJCQk8cGF0aCBpZD0icGF0aDEwMjY3MCIgaW5rc2NhcGU6Y29ubmVjdG9yLWN1cnZhdHVyZT0iMCIgc3R5bGU9ImZpbGw6bm9uZTsiIGQ9Ik0wLjQxLDQ0LjdDMCw0NC44Myw2LjkzLDQyLjE3LDEwLjksNDcuMiAgICAgICBjMS4zOSwxLjc4LTAuMjIsOS4wNS00LjA4LDE0Ljc3TDAuNDEsNDQuN3oiLz4mI3hhOwkJCQkJJiN4YTsJCQkJCQk8cGF0aCBpZD0icGF0aDEwMjY3MiIgaW5rc2NhcGU6Y29ubmVjdG9yLWN1cnZhdHVyZT0iMCIgc3R5bGU9ImZpbGw6bm9uZTtzdHJva2U6I0ZGRkZGRjtzdHJva2Utd2lkdGg6MC43NjU7c3Ryb2tlLWxpbmVjYXA6cm91bmQ7c3Ryb2tlLWxpbmVqb2luOnJvdW5kO3N0cm9rZS1taXRlcmxpbWl0OjM7IiBkPSIgICAgICAgTTAuNDEsNDQuN0MwLDQ0LjgzLDYuOTMsNDIuMTcsMTAuOSw0Ny4yYzEuMzksMS43OC0wLjIyLDkuMDUtNC4wOCwxNC43NyIvPiYjeGE7CQkJCTwvZz4mI3hhOwkJCQk8ZyBpZD0ic2hhcGUzNzE2LTM1IiB0cmFuc2Zvcm09InRyYW5zbGF0ZSg4LjU0MTU5LC05LjMzMjg0KSI+JiN4YTsJCQkJCTx0aXRsZSBpZD0idGl0bGUxMDI2NzUiPnBhdGgzNzA0PC90aXRsZT4mI3hhOwkJCQkJPGcgaWQ9InNoYWRvdzM3MTYtMzYiPiYjeGE7CQkJCQk8L2c+JiN4YTsJCQkJCTxwYXRoIGlkPSJwYXRoMTAyNjc4IiBpbmtzY2FwZTpjb25uZWN0b3ItY3VydmF0dXJlPSIwIiBzdHlsZT0iZmlsbDpub25lOyIgZD0iTTE1LjkxLDU5LjAzYzAsMCwwLjI1LDEuMjQsMy45MSwwLjQ5ICAgICAgIGMxLjYtMC4zMywwLjY0LDAuOTUtMC45NSwxLjY4Yy0xLjM0LDAuNjItNC4zMiwwLjc3LTQuMzctMC4wOGMtMC4xMi0yLjIsMS41Ny0xLjU0LDEuNDUtMi4wOWMtMC4xMy0wLjU1LTAuODctMC45NS0xLjM3LTIuMiAgICAgICBjLTAuNDQtMS4wNi02LjAyLTkuMjEsMS41NC04YzAuMjgtMC4wNi0xLjk3LTcuMTktOS4wNS03LjNDMCw0MS40MSwwLjIsNTAuMjMsMC4yLDUwLjIzTDE1LjkxLDU5LjAzeiIvPiYjeGE7CQkJCQkmI3hhOwkJCQkJCTxwYXRoIGlkPSJwYXRoMTAyNjgwIiBpbmtzY2FwZTpjb25uZWN0b3ItY3VydmF0dXJlPSIwIiBzdHlsZT0iZmlsbDpub25lO3N0cm9rZTojRkZGRkZGO3N0cm9rZS13aWR0aDowLjc2NTtzdHJva2UtbGluZWNhcDpyb3VuZDtzdHJva2UtbGluZWpvaW46cm91bmQ7c3Ryb2tlLW1pdGVybGltaXQ6MzsiIGQ9IiAgICAgICBNMTUuOTEsNTkuMDNjMCwwLDAuMjUsMS4yNCwzLjkxLDAuNDljMS42LTAuMzMsMC42NCwwLjk1LTAuOTUsMS42OGMtMS4zNCwwLjYyLTQuMzIsMC43Ny00LjM3LTAuMDggICAgICAgYy0wLjEyLTIuMiwxLjU3LTEuNTQsMS40NS0yLjA5Yy0wLjEzLTAuNTUtMC44Ny0wLjk1LTEuMzctMi4yYy0wLjQ0LTEuMDYtNi4wMi05LjIxLDEuNTQtOGMwLjI4LTAuMDYtMS45Ny03LjE5LTkuMDUtNy4zICAgICAgIEMwLDQxLjQxLDAuMiw1MC4yMywwLjIsNTAuMjMiLz4mI3hhOwkJCQk8L2c+JiN4YTsJCQkJPGcgaWQ9InNoYXBlMzcxNy0zOSIgdHJhbnNmb3JtPSJ0cmFuc2xhdGUoOC4yMTc0NywtOC41MDM0NikiPiYjeGE7CQkJCQk8dGl0bGUgaWQ9InRpdGxlMTAyNjgzIj5wYXRoMzcwNjwvdGl0bGU+JiN4YTsJCQkJCTxnIGlkPSJzaGFkb3czNzE3LTQwIj4mI3hhOwkJCQkJPC9nPiYjeGE7CQkJCQkmI3hhOwkJCQkJCTxwYXRoIGlkPSJwYXRoMTAyNjg2IiBpbmtzY2FwZTpjb25uZWN0b3ItY3VydmF0dXJlPSIwIiBzdHlsZT0iZmlsbDpub25lO3N0cm9rZTojRkZGRkZGO3N0cm9rZS13aWR0aDowLjc2NTtzdHJva2UtbGluZWNhcDpyb3VuZDtzdHJva2UtbGluZWpvaW46cm91bmQ7c3Ryb2tlLW1pdGVybGltaXQ6MzsiIGQ9IiAgICAgICBNNC42NCw1OC45NGMtMC45NSwxLjEtMC42OSwxLjI5LTIuNjcsMS42OWMtMS45NywwLjQtMC44MiwxLjE1LTAuMDUsMS4zNGMxLjY2LDAuNTMsMy40OC0wLjA2LDQuNTEtMS40NyAgICAgICBjMC4zNS0wLjY2LDAuMS0xLjQ4LTAuNTYtMS44M0g1LjgyYy0wLjQxLTAuMjMtMC45My0wLjExLTEuMTksMC4yOUw0LjY0LDU4Ljk0eiIvPiYjeGE7CQkJCTwvZz4mI3hhOwkJCQk8ZyBpZD0ic2hhcGUzNzE4LTQyIiB0cmFuc2Zvcm09InRyYW5zbGF0ZSg4LjYzNjkyLC0xMS41MzUpIj4mI3hhOwkJCQkJPHRpdGxlIGlkPSJ0aXRsZTEwMjY4OSI+cGF0aDM3MDg8L3RpdGxlPiYjeGE7CQkJCQk8ZyBpZD0ic2hhZG93MzcxOC00MyI+JiN4YTsJCQkJCTwvZz4mI3hhOwkJCQkJPHBhdGggaWQ9InBhdGgxMDI2OTIiIGlua3NjYXBlOmNvbm5lY3Rvci1jdXJ2YXR1cmU9IjAiIHN0eWxlPSJmaWxsOm5vbmU7IiBkPSJNNC4xNiw2MS45N2MwLTAuOCwwLjE4LTEuNiwwLjU0LTIuMzIgICAgICAgYzAuNTEtMS4zNSwxLjY2LTIuNzEsMC43My03Yy0wLjY5LTMuMTktNS4zMy0wLjY2LTUuMzMtMC4yMmMwLjExLDEuNDIsMC4wNywyLjg0LTAuMSw0LjI1Yy0wLjQsMi4xOCwxLjA0LDQuMjYsMy4yMiw0LjY2ICAgICAgIGMwLjI5LDAuMDUsMC41OSwwLjA3LDAuODgsMC4wNkw0LjE2LDYxLjk3eiIvPiYjeGE7CQkJCQkmI3hhOwkJCQkJCTxwYXRoIGlkPSJwYXRoMTAyNjk0IiBpbmtzY2FwZTpjb25uZWN0b3ItY3VydmF0dXJlPSIwIiBzdHlsZT0iZmlsbDpub25lO3N0cm9rZTojRkZGRkZGO3N0cm9rZS13aWR0aDowLjc2NTtzdHJva2UtbGluZWNhcDpyb3VuZDtzdHJva2UtbGluZWpvaW46cm91bmQ7c3Ryb2tlLW1pdGVybGltaXQ6MzsiIGQ9IiAgICAgICBNNC4xNiw2MS45N2MwLTAuOCwwLjE4LTEuNiwwLjU0LTIuMzJjMC41MS0xLjM1LDEuNjYtMi43MSwwLjczLTdjLTAuNjktMy4xOS01LjMzLTAuNjYtNS4zMy0wLjIyICAgICAgIGMwLjExLDEuNDIsMC4wNywyLjg0LTAuMSw0LjI1Yy0wLjQsMi4xOCwxLjA0LDQuMjYsMy4yMiw0LjY2YzAuMjksMC4wNSwwLjU5LDAuMDcsMC44OCwwLjA2Ii8+JiN4YTsJCQkJPC9nPiYjeGE7CQkJCTxnIGlkPSJzaGFwZTM3MTktNDYiIHRyYW5zZm9ybT0idHJhbnNsYXRlKDExLjY4NzUsLTIwLjU0MzcpIj4mI3hhOwkJCQkJPHRpdGxlIGlkPSJ0aXRsZTEwMjY5NyI+cGF0aDM3MTA8L3RpdGxlPiYjeGE7CQkJCQk8ZyBpZD0ic2hhZG93MzcxOS00NyI+JiN4YTsJCQkJCTwvZz4mI3hhOwkJCQkJJiN4YTsJCQkJCQk8cGF0aCBpZD0icGF0aDEwMjcwMCIgaW5rc2NhcGU6Y29ubmVjdG9yLWN1cnZhdHVyZT0iMCIgc3R5bGU9ImZpbGw6I0ZGRkZGRjtzdHJva2U6I0ZGRkZGRjtzdHJva2Utd2lkdGg6MC40MTI1O3N0cm9rZS1saW5lY2FwOnNxdWFyZTtzdHJva2UtbWl0ZXJsaW1pdDozOyIgZD0iICAgICAgIE0wLDYxLjM3YzAsMC4xNSwwLjI4LDAuNTQsMC42NSwwLjZjMC4zLDAuMDQsMC41OS0wLjEyLDAuNzItMC40YzAtMC4xNS0wLjI3LTAuMzItMC42NS0wLjM2Yy0wLjM3LTAuMDUtMC43LDAtMC43MiwwLjE3VjYxLjM3ICAgICAgIHoiLz4mI3hhOwkJCQk8L2c+JiN4YTsJCQkJPGcgaWQ9InNoYXBlMzcyMC00OSIgdHJhbnNmb3JtPSJ0cmFuc2xhdGUoMjEuODk3NCwtMjAuODQ4NykiPiYjeGE7CQkJCQk8dGl0bGUgaWQ9InRpdGxlMTAyNzAzIj5wYXRoMzcxMjwvdGl0bGU+JiN4YTsJCQkJCTxnIGlkPSJzaGFkb3czNzIwLTUwIj4mI3hhOwkJCQkJPC9nPiYjeGE7CQkJCQkmI3hhOwkJCQkJCTxwYXRoIGlkPSJwYXRoMTAyNzA2IiBpbmtzY2FwZTpjb25uZWN0b3ItY3VydmF0dXJlPSIwIiBzdHlsZT0iZmlsbDojRkZGRkZGO3N0cm9rZTojRkZGRkZGO3N0cm9rZS13aWR0aDowLjIxO3N0cm9rZS1saW5lY2FwOnNxdWFyZTtzdHJva2UtbWl0ZXJsaW1pdDozOyIgZD0iICAgICAgIE0xLjM3LDYxLjM3YzAsMC4xNS0wLjI3LDAuNTQtMC42NSwwLjZjLTAuMywwLjA0LTAuNTktMC4xMi0wLjcyLTAuNGMwLTAuMTUsMC4yOC0wLjMyLDAuNjUtMC4zNiAgICAgICBDMS4wMiw2MS4xNiwxLjM1LDYxLjIxLDEuMzcsNjEuMzdMMS4zNyw2MS4zN3oiLz4mI3hhOwkJCQk8L2c+JiN4YTsJCQkJPGcgaWQ9InNoYXBlMzcyMS01MiIgdHJhbnNmb3JtPSJ0cmFuc2xhdGUoMjMuODEzNSwtMTMuMzY1MykiPiYjeGE7CQkJCQk8dGl0bGUgaWQ9InRpdGxlMTAyNzA5Ij5wYXRoMzcxNDwvdGl0bGU+JiN4YTsJCQkJCTxnIGlkPSJzaGFkb3czNzIxLTUzIj4mI3hhOwkJCQkJPC9nPiYjeGE7CQkJCQk8cGF0aCBpZD0icGF0aDEwMjcxMiIgaW5rc2NhcGU6Y29ubmVjdG9yLWN1cnZhdHVyZT0iMCIgc3R5bGU9ImZpbGw6bm9uZTsiIGQ9Ik0wLjgxLDUyLjg2YzAuMDcsMS4xNy0wLjI1LDEuOTEtMC4yOSwzLjIgICAgICAgYy0wLjA1LDEuOCwwLjg2LDMuODEtMC41Miw1LjkxTDAuODEsNTIuODZ6Ii8+JiN4YTsJCQkJCSYjeGE7CQkJCQkJPHBhdGggaWQ9InBhdGgxMDI3MTQiIGlua3NjYXBlOmNvbm5lY3Rvci1jdXJ2YXR1cmU9IjAiIHN0eWxlPSJmaWxsOm5vbmU7c3Ryb2tlOiNGRkZGRkY7c3Ryb2tlLXdpZHRoOjAuNzY1O3N0cm9rZS1saW5lY2FwOnJvdW5kO3N0cm9rZS1saW5lam9pbjpyb3VuZDtzdHJva2UtbWl0ZXJsaW1pdDozOyIgZD0iICAgICAgIE0wLjgxLDUyLjg2YzAuMDcsMS4xNy0wLjI1LDEuOTEtMC4yOSwzLjJjLTAuMDUsMS44LDAuODYsMy44MS0wLjUyLDUuOTEiLz4mI3hhOwkJCQk8L2c+JiN4YTsJCQk8L2c+JiN4YTsJCTwvZz4mI3hhOwk8L2c+JiN4YTs8L2c+JiN4YTs8L3N2Zz4=;" vertex="1" parent="AaKXk8wZwZUjWJwKBfMZ-49">
          <mxGeometry x="80.00000000000003" width="30.65" height="40" as="geometry" />
        </mxCell>
        <mxCell id="AaKXk8wZwZUjWJwKBfMZ-50" value="" style="group" vertex="1" connectable="0" parent="1">
          <mxGeometry x="233.00000000000003" y="195.09" width="117.11000000000001" height="114.91" as="geometry" />
        </mxCell>
        <mxCell id="AaKXk8wZwZUjWJwKBfMZ-51" value="" style="aspect=fixed;perimeter=ellipsePerimeter;html=1;align=center;shadow=0;dashed=0;spacingTop=3;image;image=img/lib/active_directory/database_server.svg;" vertex="1" parent="AaKXk8wZwZUjWJwKBfMZ-50">
          <mxGeometry width="94.23" height="114.91" as="geometry" />
        </mxCell>
        <mxCell id="AaKXk8wZwZUjWJwKBfMZ-52" value="" style="group" vertex="1" connectable="0" parent="AaKXk8wZwZUjWJwKBfMZ-50">
          <mxGeometry x="37.110000000000014" y="40" width="80" height="69" as="geometry" />
        </mxCell>
        <mxCell id="AaKXk8wZwZUjWJwKBfMZ-53" value="" style="sketch=0;shadow=0;dashed=0;html=1;strokeColor=none;fillColor=#505050;labelPosition=center;verticalLabelPosition=bottom;verticalAlign=top;outlineConnect=0;align=center;shape=mxgraph.office.databases.database_mirror_witness_node;rounded=0;fontSize=12;fontColor=#5C5C5C;" vertex="1" parent="AaKXk8wZwZUjWJwKBfMZ-52">
          <mxGeometry y="10" width="60" height="59" as="geometry" />
        </mxCell>
        <mxCell id="AaKXk8wZwZUjWJwKBfMZ-54" value="" style="sketch=0;shadow=0;dashed=0;html=1;strokeColor=none;fillColor=#505050;labelPosition=center;verticalLabelPosition=bottom;verticalAlign=top;outlineConnect=0;align=center;shape=mxgraph.office.databases.database_mirror_witness_node;rounded=0;fontSize=12;fontColor=#5C5C5C;" vertex="1" parent="AaKXk8wZwZUjWJwKBfMZ-52">
          <mxGeometry x="20" width="60" height="59" as="geometry" />
        </mxCell>
        <mxCell id="AaKXk8wZwZUjWJwKBfMZ-56" value="" style="group" vertex="1" connectable="0" parent="1">
          <mxGeometry x="390" y="195.09" width="117.11000000000001" height="114.91" as="geometry" />
        </mxCell>
        <mxCell id="AaKXk8wZwZUjWJwKBfMZ-57" value="" style="aspect=fixed;perimeter=ellipsePerimeter;html=1;align=center;shadow=0;dashed=0;spacingTop=3;image;image=img/lib/active_directory/database_server.svg;" vertex="1" parent="AaKXk8wZwZUjWJwKBfMZ-56">
          <mxGeometry width="94.23" height="114.91" as="geometry" />
        </mxCell>
        <mxCell id="AaKXk8wZwZUjWJwKBfMZ-58" value="" style="group" vertex="1" connectable="0" parent="AaKXk8wZwZUjWJwKBfMZ-56">
          <mxGeometry x="37.110000000000014" y="40" width="80" height="69" as="geometry" />
        </mxCell>
        <mxCell id="AaKXk8wZwZUjWJwKBfMZ-59" value="" style="sketch=0;shadow=0;dashed=0;html=1;strokeColor=none;fillColor=#505050;labelPosition=center;verticalLabelPosition=bottom;verticalAlign=top;outlineConnect=0;align=center;shape=mxgraph.office.databases.database_mirror_witness_node;rounded=0;fontSize=12;fontColor=#5C5C5C;" vertex="1" parent="AaKXk8wZwZUjWJwKBfMZ-58">
          <mxGeometry y="10" width="60" height="59" as="geometry" />
        </mxCell>
        <mxCell id="AaKXk8wZwZUjWJwKBfMZ-60" value="" style="sketch=0;shadow=0;dashed=0;html=1;strokeColor=none;fillColor=#505050;labelPosition=center;verticalLabelPosition=bottom;verticalAlign=top;outlineConnect=0;align=center;shape=mxgraph.office.databases.database_mirror_witness_node;rounded=0;fontSize=12;fontColor=#5C5C5C;" vertex="1" parent="AaKXk8wZwZUjWJwKBfMZ-58">
          <mxGeometry x="20" width="60" height="59" as="geometry" />
        </mxCell>
        <mxCell id="AaKXk8wZwZUjWJwKBfMZ-61" value="" style="rounded=1;whiteSpace=wrap;html=1;shadow=0;strokeWidth=2;fillColor=#d5e8d4;fontSize=12;align=center;strokeColor=#82b366;arcSize=3;" vertex="1" parent="1">
          <mxGeometry x="75" y="369.5" width="460" height="240" as="geometry" />
        </mxCell>
        <mxCell id="AaKXk8wZwZUjWJwKBfMZ-62" value="" style="endArrow=blockThin;startArrow=blockThin;html=1;rounded=0;exitX=0.5;exitY=0;exitDx=0;exitDy=0;entryX=0;entryY=0.5;entryDx=0;entryDy=0;startFill=1;endFill=1;" edge="1" parent="1" source="AaKXk8wZwZUjWJwKBfMZ-67" target="AaKXk8wZwZUjWJwKBfMZ-65">
          <mxGeometry width="50" height="50" relative="1" as="geometry">
            <mxPoint x="275" y="439.5" as="sourcePoint" />
            <mxPoint x="405" y="336.5889090496711" as="targetPoint" />
            <Array as="points">
              <mxPoint x="132" y="404.5" />
            </Array>
          </mxGeometry>
        </mxCell>
        <mxCell id="AaKXk8wZwZUjWJwKBfMZ-63" value="" style="endArrow=blockThin;startArrow=blockThin;html=1;rounded=0;exitX=0.5;exitY=0;exitDx=0;exitDy=0;startFill=1;endFill=1;entryX=0.273;entryY=0.857;entryDx=0;entryDy=0;entryPerimeter=0;" edge="1" parent="1" source="AaKXk8wZwZUjWJwKBfMZ-73" target="AaKXk8wZwZUjWJwKBfMZ-65">
          <mxGeometry width="50" height="50" relative="1" as="geometry">
            <mxPoint x="439.57843879629627" y="410.5723912499999" as="sourcePoint" />
            <mxPoint x="285" y="404.5" as="targetPoint" />
          </mxGeometry>
        </mxCell>
        <mxCell id="AaKXk8wZwZUjWJwKBfMZ-64" value="" style="endArrow=blockThin;startArrow=blockThin;html=1;rounded=0;exitX=1;exitY=0.5;exitDx=0;exitDy=0;entryX=0.5;entryY=0;entryDx=0;entryDy=0;startFill=1;endFill=1;" edge="1" parent="1" source="AaKXk8wZwZUjWJwKBfMZ-65" target="AaKXk8wZwZUjWJwKBfMZ-78">
          <mxGeometry width="50" height="50" relative="1" as="geometry">
            <mxPoint x="443.3599999999999" y="335.00525915600053" as="sourcePoint" />
            <mxPoint x="516.5250000000001" y="409.5" as="targetPoint" />
            <Array as="points">
              <mxPoint x="442" y="404.5" />
            </Array>
          </mxGeometry>
        </mxCell>
        <mxCell id="AaKXk8wZwZUjWJwKBfMZ-65" value="" style="image;html=1;image=img/lib/clip_art/networking/Switch_128x128.png" vertex="1" parent="1">
          <mxGeometry x="255" y="369.5" width="110" height="70" as="geometry" />
        </mxCell>
        <mxCell id="AaKXk8wZwZUjWJwKBfMZ-72" value="" style="group" vertex="1" connectable="0" parent="1">
          <mxGeometry x="238.00000000000003" y="494.59000000000003" width="117.11000000000001" height="114.91" as="geometry" />
        </mxCell>
        <mxCell id="AaKXk8wZwZUjWJwKBfMZ-73" value="" style="aspect=fixed;perimeter=ellipsePerimeter;html=1;align=center;shadow=0;dashed=0;spacingTop=3;image;image=img/lib/active_directory/database_server.svg;" vertex="1" parent="AaKXk8wZwZUjWJwKBfMZ-72">
          <mxGeometry width="94.23" height="114.91" as="geometry" />
        </mxCell>
        <mxCell id="AaKXk8wZwZUjWJwKBfMZ-74" value="" style="group" vertex="1" connectable="0" parent="AaKXk8wZwZUjWJwKBfMZ-72">
          <mxGeometry x="37.110000000000014" y="40" width="80" height="69" as="geometry" />
        </mxCell>
        <mxCell id="AaKXk8wZwZUjWJwKBfMZ-75" value="" style="sketch=0;shadow=0;dashed=0;html=1;strokeColor=none;fillColor=#505050;labelPosition=center;verticalLabelPosition=bottom;verticalAlign=top;outlineConnect=0;align=center;shape=mxgraph.office.databases.database_mirror_witness_node;rounded=0;fontSize=12;fontColor=#5C5C5C;" vertex="1" parent="AaKXk8wZwZUjWJwKBfMZ-74">
          <mxGeometry y="10" width="60" height="59" as="geometry" />
        </mxCell>
        <mxCell id="AaKXk8wZwZUjWJwKBfMZ-76" value="" style="sketch=0;shadow=0;dashed=0;html=1;strokeColor=none;fillColor=#505050;labelPosition=center;verticalLabelPosition=bottom;verticalAlign=top;outlineConnect=0;align=center;shape=mxgraph.office.databases.database_mirror_witness_node;rounded=0;fontSize=12;fontColor=#5C5C5C;" vertex="1" parent="AaKXk8wZwZUjWJwKBfMZ-74">
          <mxGeometry x="20" width="60" height="59" as="geometry" />
        </mxCell>
        <mxCell id="AaKXk8wZwZUjWJwKBfMZ-77" value="" style="group" vertex="1" connectable="0" parent="1">
          <mxGeometry x="395" y="494.59000000000003" width="117.11000000000001" height="114.91" as="geometry" />
        </mxCell>
        <mxCell id="AaKXk8wZwZUjWJwKBfMZ-78" value="" style="aspect=fixed;perimeter=ellipsePerimeter;html=1;align=center;shadow=0;dashed=0;spacingTop=3;image;image=img/lib/active_directory/database_server.svg;" vertex="1" parent="AaKXk8wZwZUjWJwKBfMZ-77">
          <mxGeometry width="94.23" height="114.91" as="geometry" />
        </mxCell>
        <mxCell id="AaKXk8wZwZUjWJwKBfMZ-79" value="" style="group" vertex="1" connectable="0" parent="AaKXk8wZwZUjWJwKBfMZ-77">
          <mxGeometry x="37.110000000000014" y="40" width="80" height="69" as="geometry" />
        </mxCell>
        <mxCell id="AaKXk8wZwZUjWJwKBfMZ-80" value="" style="sketch=0;shadow=0;dashed=0;html=1;strokeColor=none;fillColor=#505050;labelPosition=center;verticalLabelPosition=bottom;verticalAlign=top;outlineConnect=0;align=center;shape=mxgraph.office.databases.database_mirror_witness_node;rounded=0;fontSize=12;fontColor=#5C5C5C;" vertex="1" parent="AaKXk8wZwZUjWJwKBfMZ-79">
          <mxGeometry y="10" width="60" height="59" as="geometry" />
        </mxCell>
        <mxCell id="AaKXk8wZwZUjWJwKBfMZ-81" value="" style="sketch=0;shadow=0;dashed=0;html=1;strokeColor=none;fillColor=#505050;labelPosition=center;verticalLabelPosition=bottom;verticalAlign=top;outlineConnect=0;align=center;shape=mxgraph.office.databases.database_mirror_witness_node;rounded=0;fontSize=12;fontColor=#5C5C5C;" vertex="1" parent="AaKXk8wZwZUjWJwKBfMZ-79">
          <mxGeometry x="20" width="60" height="59" as="geometry" />
        </mxCell>
        <mxCell id="AaKXk8wZwZUjWJwKBfMZ-67" value="" style="aspect=fixed;perimeter=ellipsePerimeter;html=1;align=center;shadow=0;dashed=0;spacingTop=3;image;image=img/lib/active_directory/database_server.svg;" vertex="1" parent="1">
          <mxGeometry x="85" y="489.5" width="94.23" height="114.91" as="geometry" />
        </mxCell>
        <mxCell id="AaKXk8wZwZUjWJwKBfMZ-68" value="" style="group" vertex="1" connectable="0" parent="1">
          <mxGeometry x="122.11000000000001" y="529.5" width="80" height="69" as="geometry" />
        </mxCell>
        <mxCell id="AaKXk8wZwZUjWJwKBfMZ-69" value="" style="sketch=0;shadow=0;dashed=0;html=1;strokeColor=none;fillColor=#505050;labelPosition=center;verticalLabelPosition=bottom;verticalAlign=top;outlineConnect=0;align=center;shape=mxgraph.office.databases.database_mirror_witness_node;rounded=0;fontSize=12;fontColor=#5C5C5C;" vertex="1" parent="AaKXk8wZwZUjWJwKBfMZ-68">
          <mxGeometry y="10" width="60" height="59" as="geometry" />
        </mxCell>
        <mxCell id="AaKXk8wZwZUjWJwKBfMZ-70" value="" style="sketch=0;shadow=0;dashed=0;html=1;strokeColor=none;fillColor=#505050;labelPosition=center;verticalLabelPosition=bottom;verticalAlign=top;outlineConnect=0;align=center;shape=mxgraph.office.databases.database_mirror_witness_node;rounded=0;fontSize=12;fontColor=#5C5C5C;" vertex="1" parent="AaKXk8wZwZUjWJwKBfMZ-68">
          <mxGeometry x="20" width="60" height="59" as="geometry" />
        </mxCell>
        <mxCell id="AaKXk8wZwZUjWJwKBfMZ-71" value="" style="shape=image;verticalLabelPosition=bottom;labelBackgroundColor=#ffffff;verticalAlign=top;aspect=fixed;imageAspect=0;image=data:image/svg+xml,PHN2ZyB4bWxuczpjYz0iaHR0cDovL2NyZWF0aXZlY29tbW9ucy5vcmcvbnMjIiB4bWxuczpkYz0iaHR0cDovL3B1cmwub3JnL2RjL2VsZW1lbnRzLzEuMS8iIHhtbG5zOmlua3NjYXBlPSJodHRwOi8vd3d3Lmlua3NjYXBlLm9yZy9uYW1lc3BhY2VzL2lua3NjYXBlIiB4bWxuczpyZGY9Imh0dHA6Ly93d3cudzMub3JnLzE5OTkvMDIvMjItcmRmLXN5bnRheC1ucyMiIHhtbG5zOnNvZGlwb2RpPSJodHRwOi8vc29kaXBvZGkuc291cmNlZm9yZ2UubmV0L0RURC9zb2RpcG9kaS0wLmR0ZCIgeG1sbnM6c3ZnPSJodHRwOi8vd3d3LnczLm9yZy8yMDAwL3N2ZyIgeG1sbnM9Imh0dHA6Ly93d3cudzMub3JnLzIwMDAvc3ZnIiB4bWxuczp4bGluaz0iaHR0cDovL3d3dy53My5vcmcvMTk5OS94bGluayIgdmVyc2lvbj0iMS4xIiBpZD0ic3ZnMTAyNzIyIiBpbmtzY2FwZTp2ZXJzaW9uPSIwLjkyLjMgKDI0MDU1NDYsIDIwMTgtMDMtMTEpIiBzb2RpcG9kaTpkb2NuYW1lPSJwb3N0Z3Jlc3FsLnN2ZyIgeD0iMHB4IiB5PSIwcHgiIHZpZXdCb3g9IjAgMCA0Ni4wMyA2MC40NyIgc3R5bGU9ImVuYWJsZS1iYWNrZ3JvdW5kOm5ldyAwIDAgNDYuMDMgNjAuNDc7IiB4bWw6c3BhY2U9InByZXNlcnZlIj4mI3hhOzxzb2RpcG9kaTpuYW1lZHZpZXcgYm9yZGVyY29sb3I9IiM2NjY2NjYiIGJvcmRlcm9wYWNpdHk9IjEiIGZpdC1tYXJnaW4tYm90dG9tPSIwIiBmaXQtbWFyZ2luLWxlZnQ9IjAiIGZpdC1tYXJnaW4tcmlnaHQ9IjAiIGZpdC1tYXJnaW4tdG9wPSIwIiBncmlkdG9sZXJhbmNlPSIxMCIgZ3VpZGV0b2xlcmFuY2U9IjEwIiBpZD0ibmFtZWR2aWV3MTAyNzI0IiBpbmtzY2FwZTpjdXJyZW50LWxheWVyPSJzdmcxMDI3MjIiIGlua3NjYXBlOmN4PSIzMC42ODk5ODMiIGlua3NjYXBlOmN5PSI0MC4zMTQ2NDUiIGlua3NjYXBlOnBhZ2VvcGFjaXR5PSIwIiBpbmtzY2FwZTpwYWdlc2hhZG93PSIyIiBpbmtzY2FwZTp3aW5kb3ctaGVpZ2h0PSIxMDE3IiBpbmtzY2FwZTp3aW5kb3ctbWF4aW1pemVkPSIxIiBpbmtzY2FwZTp3aW5kb3ctd2lkdGg9IjE5MjAiIGlua3NjYXBlOndpbmRvdy14PSItOCIgaW5rc2NhcGU6d2luZG93LXk9Ii04IiBpbmtzY2FwZTp6b29tPSIxMC40OTMzMTUiIG9iamVjdHRvbGVyYW5jZT0iMTAiIHBhZ2Vjb2xvcj0iI2ZmZmZmZiIgc2hvd2dyaWQ9ImZhbHNlIj4mI3hhOwk8L3NvZGlwb2RpOm5hbWVkdmlldz4mI3hhOzxnIGlkPSJnMTAyNzIwIiB0cmFuc2Zvcm09InRyYW5zbGF0ZSgtMC43NSwtMC43NTQ4KSI+JiN4YTsJPHRpdGxlIGlkPSJ0aXRsZTEwMjYwNSI+UGFnZS0xPC90aXRsZT4mI3hhOwk8ZyBpZD0iZ3JvdXAzNzA0LTEiIHRyYW5zZm9ybT0idHJhbnNsYXRlKDAuNzUsLTAuNzUpIj4mI3hhOwkJPHRpdGxlIGlkPSJ0aXRsZTEwMjYwNyI+UG9zdGdyZVNRTC42MzM8L3RpdGxlPiYjeGE7CQk8ZyBpZD0iZ3JvdXAzNzA1LTIiPiYjeGE7CQkJPHRpdGxlIGlkPSJ0aXRsZTEwMjYwOSI+Q0hlY2ttYXJrXzI8L3RpdGxlPiYjeGE7CQkJPGcgaWQ9InNoYXBlMzcwNi0zIj4mI3hhOwkJCQk8dGl0bGUgaWQ9InRpdGxlMTAyNjExIj5wYXRoMzY4NjwvdGl0bGU+JiN4YTsJCQkJPGcgaWQ9InNoYWRvdzM3MDYtNCI+JiN4YTsJCQkJPC9nPiYjeGE7CQkJCTxwYXRoIGlkPSJwYXRoMTAyNjE0IiBpbmtzY2FwZTpjb25uZWN0b3ItY3VydmF0dXJlPSIwIiBzdHlsZT0iZmlsbDojMzk5OEM1OyIgZD0iTTAsOS41NHY0NC4zMmMwLDQuNjYsMTAuMjgsOC4xMSwyMi44OCw4LjExICAgICAgVjkuNTRIMHoiLz4mI3hhOwkJCTwvZz4mI3hhOwkJCTxnIGlkPSJzaGFwZTM3MDctNiIgdHJhbnNmb3JtPSJ0cmFuc2xhdGUoMjIuODc5MykiPiYjeGE7CQkJCTx0aXRsZSBpZD0idGl0bGUxMDI2MTciPnBhdGgzNjg4PC90aXRsZT4mI3hhOwkJCQk8ZyBpZD0ic2hhZG93MzcwNy03Ij4mI3hhOwkJCQk8L2c+JiN4YTsJCQkJPHBhdGggaWQ9InBhdGgxMDI2MjAiIGlua3NjYXBlOmNvbm5lY3Rvci1jdXJ2YXR1cmU9IjAiIHN0eWxlPSJmaWxsOiM1OUIzRDg7IiBkPSJNMCw2MS45N2gwLjEyYzEyLjUyLDAsMjIuNzYtMy42NiwyMi43Ni04LjMxICAgICAgVjkuNTRIMFY2MS45N3oiLz4mI3hhOwkJCTwvZz4mI3hhOwkJCTxnIGlkPSJzaGFwZTM3MDgtOSIgdHJhbnNmb3JtPSJ0cmFuc2xhdGUoMCwtNDMuNzg1MikiPiYjeGE7CQkJCTx0aXRsZSBpZD0idGl0bGUxMDI2MjMiPnBhdGgzNjkwPC90aXRsZT4mI3hhOwkJCQk8ZyBpZD0ic2hhZG93MzcwOC0xMCI+JiN4YTsJCQkJPC9nPiYjeGE7CQkJCTxwYXRoIGlkPSJwYXRoMTAyNjI2IiBpbmtzY2FwZTpjb25uZWN0b3ItY3VydmF0dXJlPSIwIiBzdHlsZT0iZmlsbDojRkZGRkZGOyIgZD0iTTQ2LjAzLDUzLjY0YzAsNC41MS0xMC4zMSw4LjMzLTIyLjk1LDguMzMgICAgICBTMCw1OC4xNSwwLDUzLjY0YzAtNC41MiwxMC4zMS04LjM1LDIyLjk2LTguMzVDMzUuNiw0NS4yOSw0Ni4wMyw0OS4xLDQ2LjAzLDUzLjY0eiIvPiYjeGE7CQkJPC9nPiYjeGE7CQkJPGcgaWQ9InNoYXBlMzcwOS0xMiIgdHJhbnNmb3JtPSJ0cmFuc2xhdGUoNC42NjE2NSwtNDcuMDkzMikiPiYjeGE7CQkJCTx0aXRsZSBpZD0idGl0bGUxMDI2MjkiPnBhdGgzNjkyPC90aXRsZT4mI3hhOwkJCQk8ZyBpZD0ic2hhZG93MzcwOS0xMyI+JiN4YTsJCQkJPC9nPiYjeGE7CQkJCTxwYXRoIGlkPSJwYXRoMTAyNjMyIiBpbmtzY2FwZTpjb25uZWN0b3ItY3VydmF0dXJlPSIwIiBzdHlsZT0iZmlsbDojN0ZCOTAwOyIgZD0iTTM2LjcxLDU2LjQ1YzAsMy4wNy04LjIzLDUuNTItMTguMjksNS41MiAgICAgIEM4LjM1LDYxLjk3LDAsNTkuNTYsMCw1Ni40NXM4LjIzLTUuNTIsMTguMjktNS41MkMyOC4zNiw1MC45MywzNi43MSw1My4zOCwzNi43MSw1Ni40NXoiLz4mI3hhOwkJCTwvZz4mI3hhOwkJCTxnIGlkPSJzaGFwZTM3MTAtMTUiIHRyYW5zZm9ybT0idHJhbnNsYXRlKDQuNjYxNjUsLTQ5LjI5NTMpIj4mI3hhOwkJCQk8dGl0bGUgaWQ9InRpdGxlMTAyNjM1Ij5wYXRoMzY5NDwvdGl0bGU+JiN4YTsJCQkJPGcgaWQ9InNoYWRvdzM3MTAtMTYiPiYjeGE7CQkJCTwvZz4mI3hhOwkJCQk8cGF0aCBpZD0icGF0aDEwMjYzOCIgaW5rc2NhcGU6Y29ubmVjdG9yLWN1cnZhdHVyZT0iMCIgc3R5bGU9ImZpbGw6I0I3RDMzMjsiIGQ9Ik0zMi43OCw2MS45N2MyLjQ2LTAuOTYsMy44Mi0yLjA5LDMuODItMy4zMiAgICAgIGMwLTMuMDctOC4yMy01LjUyLTE4LjMtNS41MkM4LjI0LDUzLjEzLDAsNTUuNTgsMCw1OC42NWMwLDEuMjMsMS40OCwyLjQ2LDMuODEsMy4zMmMzLjMyLTEuMzYsOC41OC0yLjA5LDE0LjQ5LTIuMDkgICAgICBjNC45MS0wLjEsOS44MSwwLjYsMTQuNDksMi4wOUgzMi43OHoiLz4mI3hhOwkJCQk8cGF0aCBpZD0icGF0aDEwMjY0MCIgaW5rc2NhcGU6Y29ubmVjdG9yLWN1cnZhdHVyZT0iMCIgc3R5bGU9ImZpbGw6bm9uZTsiIGQ9Ik0zMi43OCw2MS45N2MyLjQ2LTAuOTYsMy44Mi0yLjA5LDMuODItMy4zMiAgICAgIGMwLTMuMDctOC4yMy01LjUyLTE4LjMtNS41MkM4LjI0LDUzLjEzLDAsNTUuNTgsMCw1OC42NWMwLDEuMjMsMS40OCwyLjQ2LDMuODEsMy4zMmMzLjMyLTEuMzYsOC41OC0yLjA5LDE0LjQ5LTIuMDkgICAgICBjNC45MS0wLjEsOS44MSwwLjYsMTQuNDksMi4wOSIvPiYjeGE7CQkJPC9nPiYjeGE7CQkJPGcgaWQ9Imdyb3VwMzcxMS0xOSIgdHJhbnNmb3JtPSJ0cmFuc2xhdGUoNy41NjkyMywtNy40NjQzNikiPiYjeGE7CQkJCTx0aXRsZSBpZD0idGl0bGUxMDI2NDMiPkxheWVyXzM8L3RpdGxlPiYjeGE7CQkJCTxnIGlkPSJzaGFwZTM3MTItMjAiIHRyYW5zZm9ybT0idHJhbnNsYXRlKDAuMDU3MTk4MikiPiYjeGE7CQkJCQk8dGl0bGUgaWQ9InRpdGxlMTAyNjQ1Ij5wYXRoMzY5NjwvdGl0bGU+JiN4YTsJCQkJCTxnIGlkPSJzaGFkb3czNzEyLTIxIj4mI3hhOwkJCQkJPC9nPiYjeGE7CQkJCQk8cGF0aCBpZD0icGF0aDEwMjY0OCIgaW5rc2NhcGU6Y29ubmVjdG9yLWN1cnZhdHVyZT0iMCIgc3R5bGU9ImZpbGw6IzMzNjc5MDsiIGQ9Ik0yOC4zMiw1MC4yM2MtMy42NSwwLjc2LTMuOTEtMC40OC0zLjkxLTAuNDggICAgICAgYzMuODItNS43Miw1LjQ4LTEzLDQuMDgtMTQuNzdjLTMuODEtNC44NS0xMC4zNy0yLjU1LTEwLjQ4LTIuNWMtMC44LTAuMTYtMS42Mi0wLjI1LTIuNDQtMC4yNmMtMS4zNy0wLjA2LTIuNzIsMC4zNS0zLjgyLDEuMTYgICAgICAgYzAsMC0xMS43NS00LjgyLTExLjI0LDYuMDhjMC4xMiwyLjMyLDMuMywxNy41NSw3LjEyLDEyLjk2YzEuNC0xLjY4LDIuNzQtMy4xMSwyLjc0LTMuMTFjMC42OCwwLjQ2LDEuNSwwLjY3LDIuMzIsMC41OSAgICAgICBsMC4wNy0wLjA2Yy0wLjAzLDAuMjItMC4wMywwLjQ0LDAsMC42NmMtMC45NiwxLjExLTAuNywxLjMtMi42NywxLjdjLTEuOTgsMC40LTAuODIsMS4xNC0wLjA2LDEuMzMgICAgICAgYzEuNjcsMC41NCwzLjQ5LTAuMDUsNC41Mi0xLjQ3bC0wLjA2LDAuMjNjMC4zOSwwLjMxLDAuNjYsMi4wMSwwLjYxLDMuNTZjLTAuMTMsMS4xNS0wLjA1LDIuMzEsMC4yMywzLjQzICAgICAgIGMwLjMsMC44MywwLjYxLDIuNjksMy4yLDIuMTRjMi4xNy0wLjQ3LDMuMjktMS42NywzLjQ0LTMuNjhjMC4xMS0xLjQyLDAuMzctMS4yMSwwLjM4LTIuNDhsMC4yMS0wLjYgICAgICAgYzAuMjItMS45MSwwLTIuNTYsMS4zNy0yLjI3aDAuMzJjMS4wMywwLjA0LDIuMDYtMC4xMywzLjAyLTAuNTFjMS42Mi0wLjc1LDIuNTktMi4wMSwwLjk2LTEuNjhMMjguMzIsNTAuMjN6Ii8+JiN4YTsJCQkJPC9nPiYjeGE7CQkJCTxnIGlkPSJzaGFwZTM3MTMtMjMiIHRyYW5zZm9ybT0idHJhbnNsYXRlKDE0LjcyODUsLTAuNDk1NzE4KSI+JiN4YTsJCQkJCTx0aXRsZSBpZD0idGl0bGUxMDI2NTEiPnBhdGgzNjk4PC90aXRsZT4mI3hhOwkJCQkJPGcgaWQ9InNoYWRvdzM3MTMtMjQiPiYjeGE7CQkJCQk8L2c+JiN4YTsJCQkJCTxwYXRoIGlkPSJwYXRoMTAyNjU0IiBpbmtzY2FwZTpjb25uZWN0b3ItY3VydmF0dXJlPSIwIiBzdHlsZT0iZmlsbDpub25lOyIgZD0iTTAuMSw1MS44M2MtMC4xLDMuNiwwLDcuMjIsMC4zOSw4LjEgICAgICAgYzAuMzcsMS41NCwxLjkyLDIuNDgsMy40NSwyLjExQzQuMDIsNjIuMDIsNC4xLDYyLDQuMTgsNjEuOTdjMi4xNy0wLjQ3LDIuOTYtMS4zNywzLjMtMy4zNWMwLjI1LTEuNDYsMC43NC01LjUxLDAuOC02LjM0ICAgICAgIEwwLjEsNTEuODN6Ii8+JiN4YTsJCQkJCSYjeGE7CQkJCQkJPHBhdGggaWQ9InBhdGgxMDI2NTYiIGlua3NjYXBlOmNvbm5lY3Rvci1jdXJ2YXR1cmU9IjAiIHN0eWxlPSJmaWxsOm5vbmU7c3Ryb2tlOiNGRkZGRkY7c3Ryb2tlLXdpZHRoOjAuNzY1O3N0cm9rZS1saW5lY2FwOnJvdW5kO3N0cm9rZS1saW5lam9pbjpyb3VuZDtzdHJva2UtbWl0ZXJsaW1pdDozOyIgZD0iICAgICAgIE0wLjEsNTEuODNjLTAuMSwzLjYsMCw3LjIyLDAuMzksOC4xYzAuMzcsMS41NCwxLjkyLDIuNDgsMy40NSwyLjExQzQuMDIsNjIuMDIsNC4xLDYyLDQuMTgsNjEuOTcgICAgICAgYzIuMTctMC40NywyLjk2LTEuMzcsMy4zLTMuMzVjMC4yNS0xLjQ2LDAuNzQtNS41MSwwLjgtNi4zNCIvPiYjeGE7CQkJCTwvZz4mI3hhOwkJCQk8ZyBpZD0ic2hhcGUzNzE0LTI3IiB0cmFuc2Zvcm09InRyYW5zbGF0ZSgwLC00Ljk5NTMxKSI+JiN4YTsJCQkJCTx0aXRsZSBpZD0idGl0bGUxMDI2NTkiPnBhdGgzNzAwPC90aXRsZT4mI3hhOwkJCQkJPGcgaWQ9InNoYWRvdzM3MTQtMjgiPiYjeGE7CQkJCQk8L2c+JiN4YTsJCQkJCTxwYXRoIGlkPSJwYXRoMTAyNjYyIiBpbmtzY2FwZTpjb25uZWN0b3ItY3VydmF0dXJlPSIwIiBzdHlsZT0iZmlsbDpub25lOyIgZD0iTTExLjc0LDM4LjI3YzAsMC0xMS43NC00Ljc3LTExLjE5LDYuMTEgICAgICAgYzAuMTEsMi4zNSwzLjMyLDE3LjU5LDcuMTMsMTIuOTVjMS40LTEuNjcsMi42Ni0zLDIuNjYtM0wxMS43NCwzOC4yN3oiLz4mI3hhOwkJCQkJJiN4YTsJCQkJCQk8cGF0aCBpZD0icGF0aDEwMjY2NCIgaW5rc2NhcGU6Y29ubmVjdG9yLWN1cnZhdHVyZT0iMCIgc3R5bGU9ImZpbGw6bm9uZTtzdHJva2U6I0ZGRkZGRjtzdHJva2Utd2lkdGg6MC43NjU7c3Ryb2tlLWxpbmVjYXA6cm91bmQ7c3Ryb2tlLWxpbmVqb2luOnJvdW5kO3N0cm9rZS1taXRlcmxpbWl0OjM7IiBkPSIgICAgICAgTTExLjc0LDM4LjI3YzAsMC0xMS43NC00Ljc3LTExLjE5LDYuMTFjMC4xMSwyLjM1LDMuMzIsMTcuNTksNy4xMywxMi45NWMxLjQtMS42NywyLjY2LTMsMi42Ni0zIi8+JiN4YTsJCQkJPC9nPiYjeGE7CQkJCTxnIGlkPSJzaGFwZTM3MTUtMzEiIHRyYW5zZm9ybT0idHJhbnNsYXRlKDE3LjY1NTIsLTEyLjI2OSkiPiYjeGE7CQkJCQk8dGl0bGUgaWQ9InRpdGxlMTAyNjY3Ij5wYXRoMzcwMjwvdGl0bGU+JiN4YTsJCQkJCTxnIGlkPSJzaGFkb3czNzE1LTMyIj4mI3hhOwkJCQkJPC9nPiYjeGE7CQkJCQk8cGF0aCBpZD0icGF0aDEwMjY3MCIgaW5rc2NhcGU6Y29ubmVjdG9yLWN1cnZhdHVyZT0iMCIgc3R5bGU9ImZpbGw6bm9uZTsiIGQ9Ik0wLjQxLDQ0LjdDMCw0NC44Myw2LjkzLDQyLjE3LDEwLjksNDcuMiAgICAgICBjMS4zOSwxLjc4LTAuMjIsOS4wNS00LjA4LDE0Ljc3TDAuNDEsNDQuN3oiLz4mI3hhOwkJCQkJJiN4YTsJCQkJCQk8cGF0aCBpZD0icGF0aDEwMjY3MiIgaW5rc2NhcGU6Y29ubmVjdG9yLWN1cnZhdHVyZT0iMCIgc3R5bGU9ImZpbGw6bm9uZTtzdHJva2U6I0ZGRkZGRjtzdHJva2Utd2lkdGg6MC43NjU7c3Ryb2tlLWxpbmVjYXA6cm91bmQ7c3Ryb2tlLWxpbmVqb2luOnJvdW5kO3N0cm9rZS1taXRlcmxpbWl0OjM7IiBkPSIgICAgICAgTTAuNDEsNDQuN0MwLDQ0LjgzLDYuOTMsNDIuMTcsMTAuOSw0Ny4yYzEuMzksMS43OC0wLjIyLDkuMDUtNC4wOCwxNC43NyIvPiYjeGE7CQkJCTwvZz4mI3hhOwkJCQk8ZyBpZD0ic2hhcGUzNzE2LTM1IiB0cmFuc2Zvcm09InRyYW5zbGF0ZSg4LjU0MTU5LC05LjMzMjg0KSI+JiN4YTsJCQkJCTx0aXRsZSBpZD0idGl0bGUxMDI2NzUiPnBhdGgzNzA0PC90aXRsZT4mI3hhOwkJCQkJPGcgaWQ9InNoYWRvdzM3MTYtMzYiPiYjeGE7CQkJCQk8L2c+JiN4YTsJCQkJCTxwYXRoIGlkPSJwYXRoMTAyNjc4IiBpbmtzY2FwZTpjb25uZWN0b3ItY3VydmF0dXJlPSIwIiBzdHlsZT0iZmlsbDpub25lOyIgZD0iTTE1LjkxLDU5LjAzYzAsMCwwLjI1LDEuMjQsMy45MSwwLjQ5ICAgICAgIGMxLjYtMC4zMywwLjY0LDAuOTUtMC45NSwxLjY4Yy0xLjM0LDAuNjItNC4zMiwwLjc3LTQuMzctMC4wOGMtMC4xMi0yLjIsMS41Ny0xLjU0LDEuNDUtMi4wOWMtMC4xMy0wLjU1LTAuODctMC45NS0xLjM3LTIuMiAgICAgICBjLTAuNDQtMS4wNi02LjAyLTkuMjEsMS41NC04YzAuMjgtMC4wNi0xLjk3LTcuMTktOS4wNS03LjNDMCw0MS40MSwwLjIsNTAuMjMsMC4yLDUwLjIzTDE1LjkxLDU5LjAzeiIvPiYjeGE7CQkJCQkmI3hhOwkJCQkJCTxwYXRoIGlkPSJwYXRoMTAyNjgwIiBpbmtzY2FwZTpjb25uZWN0b3ItY3VydmF0dXJlPSIwIiBzdHlsZT0iZmlsbDpub25lO3N0cm9rZTojRkZGRkZGO3N0cm9rZS13aWR0aDowLjc2NTtzdHJva2UtbGluZWNhcDpyb3VuZDtzdHJva2UtbGluZWpvaW46cm91bmQ7c3Ryb2tlLW1pdGVybGltaXQ6MzsiIGQ9IiAgICAgICBNMTUuOTEsNTkuMDNjMCwwLDAuMjUsMS4yNCwzLjkxLDAuNDljMS42LTAuMzMsMC42NCwwLjk1LTAuOTUsMS42OGMtMS4zNCwwLjYyLTQuMzIsMC43Ny00LjM3LTAuMDggICAgICAgYy0wLjEyLTIuMiwxLjU3LTEuNTQsMS40NS0yLjA5Yy0wLjEzLTAuNTUtMC44Ny0wLjk1LTEuMzctMi4yYy0wLjQ0LTEuMDYtNi4wMi05LjIxLDEuNTQtOGMwLjI4LTAuMDYtMS45Ny03LjE5LTkuMDUtNy4zICAgICAgIEMwLDQxLjQxLDAuMiw1MC4yMywwLjIsNTAuMjMiLz4mI3hhOwkJCQk8L2c+JiN4YTsJCQkJPGcgaWQ9InNoYXBlMzcxNy0zOSIgdHJhbnNmb3JtPSJ0cmFuc2xhdGUoOC4yMTc0NywtOC41MDM0NikiPiYjeGE7CQkJCQk8dGl0bGUgaWQ9InRpdGxlMTAyNjgzIj5wYXRoMzcwNjwvdGl0bGU+JiN4YTsJCQkJCTxnIGlkPSJzaGFkb3czNzE3LTQwIj4mI3hhOwkJCQkJPC9nPiYjeGE7CQkJCQkmI3hhOwkJCQkJCTxwYXRoIGlkPSJwYXRoMTAyNjg2IiBpbmtzY2FwZTpjb25uZWN0b3ItY3VydmF0dXJlPSIwIiBzdHlsZT0iZmlsbDpub25lO3N0cm9rZTojRkZGRkZGO3N0cm9rZS13aWR0aDowLjc2NTtzdHJva2UtbGluZWNhcDpyb3VuZDtzdHJva2UtbGluZWpvaW46cm91bmQ7c3Ryb2tlLW1pdGVybGltaXQ6MzsiIGQ9IiAgICAgICBNNC42NCw1OC45NGMtMC45NSwxLjEtMC42OSwxLjI5LTIuNjcsMS42OWMtMS45NywwLjQtMC44MiwxLjE1LTAuMDUsMS4zNGMxLjY2LDAuNTMsMy40OC0wLjA2LDQuNTEtMS40NyAgICAgICBjMC4zNS0wLjY2LDAuMS0xLjQ4LTAuNTYtMS44M0g1LjgyYy0wLjQxLTAuMjMtMC45My0wLjExLTEuMTksMC4yOUw0LjY0LDU4Ljk0eiIvPiYjeGE7CQkJCTwvZz4mI3hhOwkJCQk8ZyBpZD0ic2hhcGUzNzE4LTQyIiB0cmFuc2Zvcm09InRyYW5zbGF0ZSg4LjYzNjkyLC0xMS41MzUpIj4mI3hhOwkJCQkJPHRpdGxlIGlkPSJ0aXRsZTEwMjY4OSI+cGF0aDM3MDg8L3RpdGxlPiYjeGE7CQkJCQk8ZyBpZD0ic2hhZG93MzcxOC00MyI+JiN4YTsJCQkJCTwvZz4mI3hhOwkJCQkJPHBhdGggaWQ9InBhdGgxMDI2OTIiIGlua3NjYXBlOmNvbm5lY3Rvci1jdXJ2YXR1cmU9IjAiIHN0eWxlPSJmaWxsOm5vbmU7IiBkPSJNNC4xNiw2MS45N2MwLTAuOCwwLjE4LTEuNiwwLjU0LTIuMzIgICAgICAgYzAuNTEtMS4zNSwxLjY2LTIuNzEsMC43My03Yy0wLjY5LTMuMTktNS4zMy0wLjY2LTUuMzMtMC4yMmMwLjExLDEuNDIsMC4wNywyLjg0LTAuMSw0LjI1Yy0wLjQsMi4xOCwxLjA0LDQuMjYsMy4yMiw0LjY2ICAgICAgIGMwLjI5LDAuMDUsMC41OSwwLjA3LDAuODgsMC4wNkw0LjE2LDYxLjk3eiIvPiYjeGE7CQkJCQkmI3hhOwkJCQkJCTxwYXRoIGlkPSJwYXRoMTAyNjk0IiBpbmtzY2FwZTpjb25uZWN0b3ItY3VydmF0dXJlPSIwIiBzdHlsZT0iZmlsbDpub25lO3N0cm9rZTojRkZGRkZGO3N0cm9rZS13aWR0aDowLjc2NTtzdHJva2UtbGluZWNhcDpyb3VuZDtzdHJva2UtbGluZWpvaW46cm91bmQ7c3Ryb2tlLW1pdGVybGltaXQ6MzsiIGQ9IiAgICAgICBNNC4xNiw2MS45N2MwLTAuOCwwLjE4LTEuNiwwLjU0LTIuMzJjMC41MS0xLjM1LDEuNjYtMi43MSwwLjczLTdjLTAuNjktMy4xOS01LjMzLTAuNjYtNS4zMy0wLjIyICAgICAgIGMwLjExLDEuNDIsMC4wNywyLjg0LTAuMSw0LjI1Yy0wLjQsMi4xOCwxLjA0LDQuMjYsMy4yMiw0LjY2YzAuMjksMC4wNSwwLjU5LDAuMDcsMC44OCwwLjA2Ii8+JiN4YTsJCQkJPC9nPiYjeGE7CQkJCTxnIGlkPSJzaGFwZTM3MTktNDYiIHRyYW5zZm9ybT0idHJhbnNsYXRlKDExLjY4NzUsLTIwLjU0MzcpIj4mI3hhOwkJCQkJPHRpdGxlIGlkPSJ0aXRsZTEwMjY5NyI+cGF0aDM3MTA8L3RpdGxlPiYjeGE7CQkJCQk8ZyBpZD0ic2hhZG93MzcxOS00NyI+JiN4YTsJCQkJCTwvZz4mI3hhOwkJCQkJJiN4YTsJCQkJCQk8cGF0aCBpZD0icGF0aDEwMjcwMCIgaW5rc2NhcGU6Y29ubmVjdG9yLWN1cnZhdHVyZT0iMCIgc3R5bGU9ImZpbGw6I0ZGRkZGRjtzdHJva2U6I0ZGRkZGRjtzdHJva2Utd2lkdGg6MC40MTI1O3N0cm9rZS1saW5lY2FwOnNxdWFyZTtzdHJva2UtbWl0ZXJsaW1pdDozOyIgZD0iICAgICAgIE0wLDYxLjM3YzAsMC4xNSwwLjI4LDAuNTQsMC42NSwwLjZjMC4zLDAuMDQsMC41OS0wLjEyLDAuNzItMC40YzAtMC4xNS0wLjI3LTAuMzItMC42NS0wLjM2Yy0wLjM3LTAuMDUtMC43LDAtMC43MiwwLjE3VjYxLjM3ICAgICAgIHoiLz4mI3hhOwkJCQk8L2c+JiN4YTsJCQkJPGcgaWQ9InNoYXBlMzcyMC00OSIgdHJhbnNmb3JtPSJ0cmFuc2xhdGUoMjEuODk3NCwtMjAuODQ4NykiPiYjeGE7CQkJCQk8dGl0bGUgaWQ9InRpdGxlMTAyNzAzIj5wYXRoMzcxMjwvdGl0bGU+JiN4YTsJCQkJCTxnIGlkPSJzaGFkb3czNzIwLTUwIj4mI3hhOwkJCQkJPC9nPiYjeGE7CQkJCQkmI3hhOwkJCQkJCTxwYXRoIGlkPSJwYXRoMTAyNzA2IiBpbmtzY2FwZTpjb25uZWN0b3ItY3VydmF0dXJlPSIwIiBzdHlsZT0iZmlsbDojRkZGRkZGO3N0cm9rZTojRkZGRkZGO3N0cm9rZS13aWR0aDowLjIxO3N0cm9rZS1saW5lY2FwOnNxdWFyZTtzdHJva2UtbWl0ZXJsaW1pdDozOyIgZD0iICAgICAgIE0xLjM3LDYxLjM3YzAsMC4xNS0wLjI3LDAuNTQtMC42NSwwLjZjLTAuMywwLjA0LTAuNTktMC4xMi0wLjcyLTAuNGMwLTAuMTUsMC4yOC0wLjMyLDAuNjUtMC4zNiAgICAgICBDMS4wMiw2MS4xNiwxLjM1LDYxLjIxLDEuMzcsNjEuMzdMMS4zNyw2MS4zN3oiLz4mI3hhOwkJCQk8L2c+JiN4YTsJCQkJPGcgaWQ9InNoYXBlMzcyMS01MiIgdHJhbnNmb3JtPSJ0cmFuc2xhdGUoMjMuODEzNSwtMTMuMzY1MykiPiYjeGE7CQkJCQk8dGl0bGUgaWQ9InRpdGxlMTAyNzA5Ij5wYXRoMzcxNDwvdGl0bGU+JiN4YTsJCQkJCTxnIGlkPSJzaGFkb3czNzIxLTUzIj4mI3hhOwkJCQkJPC9nPiYjeGE7CQkJCQk8cGF0aCBpZD0icGF0aDEwMjcxMiIgaW5rc2NhcGU6Y29ubmVjdG9yLWN1cnZhdHVyZT0iMCIgc3R5bGU9ImZpbGw6bm9uZTsiIGQ9Ik0wLjgxLDUyLjg2YzAuMDcsMS4xNy0wLjI1LDEuOTEtMC4yOSwzLjIgICAgICAgYy0wLjA1LDEuOCwwLjg2LDMuODEtMC41Miw1LjkxTDAuODEsNTIuODZ6Ii8+JiN4YTsJCQkJCSYjeGE7CQkJCQkJPHBhdGggaWQ9InBhdGgxMDI3MTQiIGlua3NjYXBlOmNvbm5lY3Rvci1jdXJ2YXR1cmU9IjAiIHN0eWxlPSJmaWxsOm5vbmU7c3Ryb2tlOiNGRkZGRkY7c3Ryb2tlLXdpZHRoOjAuNzY1O3N0cm9rZS1saW5lY2FwOnJvdW5kO3N0cm9rZS1saW5lam9pbjpyb3VuZDtzdHJva2UtbWl0ZXJsaW1pdDozOyIgZD0iICAgICAgIE0wLjgxLDUyLjg2YzAuMDcsMS4xNy0wLjI1LDEuOTEtMC4yOSwzLjJjLTAuMDUsMS44LDAuODYsMy44MS0wLjUyLDUuOTEiLz4mI3hhOwkJCQk8L2c+JiN4YTsJCQk8L2c+JiN4YTsJCTwvZz4mI3hhOwk8L2c+JiN4YTs8L2c+JiN4YTs8L3N2Zz4=;" vertex="1" parent="AaKXk8wZwZUjWJwKBfMZ-68">
          <mxGeometry x="1.4210854715202004e-14" y="9.5" width="30.65" height="40" as="geometry" />
        </mxCell>
        <mxCell id="AaKXk8wZwZUjWJwKBfMZ-86" value="" style="shape=image;verticalLabelPosition=bottom;labelBackgroundColor=#ffffff;verticalAlign=top;aspect=fixed;imageAspect=0;image=data:image/svg+xml,PHN2ZyB4bWxuczpjYz0iaHR0cDovL2NyZWF0aXZlY29tbW9ucy5vcmcvbnMjIiB4bWxuczpkYz0iaHR0cDovL3B1cmwub3JnL2RjL2VsZW1lbnRzLzEuMS8iIHhtbG5zOmlua3NjYXBlPSJodHRwOi8vd3d3Lmlua3NjYXBlLm9yZy9uYW1lc3BhY2VzL2lua3NjYXBlIiB4bWxuczpyZGY9Imh0dHA6Ly93d3cudzMub3JnLzE5OTkvMDIvMjItcmRmLXN5bnRheC1ucyMiIHhtbG5zOnNvZGlwb2RpPSJodHRwOi8vc29kaXBvZGkuc291cmNlZm9yZ2UubmV0L0RURC9zb2RpcG9kaS0wLmR0ZCIgeG1sbnM6c3ZnPSJodHRwOi8vd3d3LnczLm9yZy8yMDAwL3N2ZyIgeG1sbnM9Imh0dHA6Ly93d3cudzMub3JnLzIwMDAvc3ZnIiB4bWxuczp4bGluaz0iaHR0cDovL3d3dy53My5vcmcvMTk5OS94bGluayIgdmVyc2lvbj0iMS4xIiBpZD0ic3ZnMTAyNzIyIiBpbmtzY2FwZTp2ZXJzaW9uPSIwLjkyLjMgKDI0MDU1NDYsIDIwMTgtMDMtMTEpIiBzb2RpcG9kaTpkb2NuYW1lPSJwb3N0Z3Jlc3FsLnN2ZyIgeD0iMHB4IiB5PSIwcHgiIHZpZXdCb3g9IjAgMCA0Ni4wMyA2MC40NyIgc3R5bGU9ImVuYWJsZS1iYWNrZ3JvdW5kOm5ldyAwIDAgNDYuMDMgNjAuNDc7IiB4bWw6c3BhY2U9InByZXNlcnZlIj4mI3hhOzxzb2RpcG9kaTpuYW1lZHZpZXcgYm9yZGVyY29sb3I9IiM2NjY2NjYiIGJvcmRlcm9wYWNpdHk9IjEiIGZpdC1tYXJnaW4tYm90dG9tPSIwIiBmaXQtbWFyZ2luLWxlZnQ9IjAiIGZpdC1tYXJnaW4tcmlnaHQ9IjAiIGZpdC1tYXJnaW4tdG9wPSIwIiBncmlkdG9sZXJhbmNlPSIxMCIgZ3VpZGV0b2xlcmFuY2U9IjEwIiBpZD0ibmFtZWR2aWV3MTAyNzI0IiBpbmtzY2FwZTpjdXJyZW50LWxheWVyPSJzdmcxMDI3MjIiIGlua3NjYXBlOmN4PSIzMC42ODk5ODMiIGlua3NjYXBlOmN5PSI0MC4zMTQ2NDUiIGlua3NjYXBlOnBhZ2VvcGFjaXR5PSIwIiBpbmtzY2FwZTpwYWdlc2hhZG93PSIyIiBpbmtzY2FwZTp3aW5kb3ctaGVpZ2h0PSIxMDE3IiBpbmtzY2FwZTp3aW5kb3ctbWF4aW1pemVkPSIxIiBpbmtzY2FwZTp3aW5kb3ctd2lkdGg9IjE5MjAiIGlua3NjYXBlOndpbmRvdy14PSItOCIgaW5rc2NhcGU6d2luZG93LXk9Ii04IiBpbmtzY2FwZTp6b29tPSIxMC40OTMzMTUiIG9iamVjdHRvbGVyYW5jZT0iMTAiIHBhZ2Vjb2xvcj0iI2ZmZmZmZiIgc2hvd2dyaWQ9ImZhbHNlIj4mI3hhOwk8L3NvZGlwb2RpOm5hbWVkdmlldz4mI3hhOzxnIGlkPSJnMTAyNzIwIiB0cmFuc2Zvcm09InRyYW5zbGF0ZSgtMC43NSwtMC43NTQ4KSI+JiN4YTsJPHRpdGxlIGlkPSJ0aXRsZTEwMjYwNSI+UGFnZS0xPC90aXRsZT4mI3hhOwk8ZyBpZD0iZ3JvdXAzNzA0LTEiIHRyYW5zZm9ybT0idHJhbnNsYXRlKDAuNzUsLTAuNzUpIj4mI3hhOwkJPHRpdGxlIGlkPSJ0aXRsZTEwMjYwNyI+UG9zdGdyZVNRTC42MzM8L3RpdGxlPiYjeGE7CQk8ZyBpZD0iZ3JvdXAzNzA1LTIiPiYjeGE7CQkJPHRpdGxlIGlkPSJ0aXRsZTEwMjYwOSI+Q0hlY2ttYXJrXzI8L3RpdGxlPiYjeGE7CQkJPGcgaWQ9InNoYXBlMzcwNi0zIj4mI3hhOwkJCQk8dGl0bGUgaWQ9InRpdGxlMTAyNjExIj5wYXRoMzY4NjwvdGl0bGU+JiN4YTsJCQkJPGcgaWQ9InNoYWRvdzM3MDYtNCI+JiN4YTsJCQkJPC9nPiYjeGE7CQkJCTxwYXRoIGlkPSJwYXRoMTAyNjE0IiBpbmtzY2FwZTpjb25uZWN0b3ItY3VydmF0dXJlPSIwIiBzdHlsZT0iZmlsbDojMzk5OEM1OyIgZD0iTTAsOS41NHY0NC4zMmMwLDQuNjYsMTAuMjgsOC4xMSwyMi44OCw4LjExICAgICAgVjkuNTRIMHoiLz4mI3hhOwkJCTwvZz4mI3hhOwkJCTxnIGlkPSJzaGFwZTM3MDctNiIgdHJhbnNmb3JtPSJ0cmFuc2xhdGUoMjIuODc5MykiPiYjeGE7CQkJCTx0aXRsZSBpZD0idGl0bGUxMDI2MTciPnBhdGgzNjg4PC90aXRsZT4mI3hhOwkJCQk8ZyBpZD0ic2hhZG93MzcwNy03Ij4mI3hhOwkJCQk8L2c+JiN4YTsJCQkJPHBhdGggaWQ9InBhdGgxMDI2MjAiIGlua3NjYXBlOmNvbm5lY3Rvci1jdXJ2YXR1cmU9IjAiIHN0eWxlPSJmaWxsOiM1OUIzRDg7IiBkPSJNMCw2MS45N2gwLjEyYzEyLjUyLDAsMjIuNzYtMy42NiwyMi43Ni04LjMxICAgICAgVjkuNTRIMFY2MS45N3oiLz4mI3hhOwkJCTwvZz4mI3hhOwkJCTxnIGlkPSJzaGFwZTM3MDgtOSIgdHJhbnNmb3JtPSJ0cmFuc2xhdGUoMCwtNDMuNzg1MikiPiYjeGE7CQkJCTx0aXRsZSBpZD0idGl0bGUxMDI2MjMiPnBhdGgzNjkwPC90aXRsZT4mI3hhOwkJCQk8ZyBpZD0ic2hhZG93MzcwOC0xMCI+JiN4YTsJCQkJPC9nPiYjeGE7CQkJCTxwYXRoIGlkPSJwYXRoMTAyNjI2IiBpbmtzY2FwZTpjb25uZWN0b3ItY3VydmF0dXJlPSIwIiBzdHlsZT0iZmlsbDojRkZGRkZGOyIgZD0iTTQ2LjAzLDUzLjY0YzAsNC41MS0xMC4zMSw4LjMzLTIyLjk1LDguMzMgICAgICBTMCw1OC4xNSwwLDUzLjY0YzAtNC41MiwxMC4zMS04LjM1LDIyLjk2LTguMzVDMzUuNiw0NS4yOSw0Ni4wMyw0OS4xLDQ2LjAzLDUzLjY0eiIvPiYjeGE7CQkJPC9nPiYjeGE7CQkJPGcgaWQ9InNoYXBlMzcwOS0xMiIgdHJhbnNmb3JtPSJ0cmFuc2xhdGUoNC42NjE2NSwtNDcuMDkzMikiPiYjeGE7CQkJCTx0aXRsZSBpZD0idGl0bGUxMDI2MjkiPnBhdGgzNjkyPC90aXRsZT4mI3hhOwkJCQk8ZyBpZD0ic2hhZG93MzcwOS0xMyI+JiN4YTsJCQkJPC9nPiYjeGE7CQkJCTxwYXRoIGlkPSJwYXRoMTAyNjMyIiBpbmtzY2FwZTpjb25uZWN0b3ItY3VydmF0dXJlPSIwIiBzdHlsZT0iZmlsbDojN0ZCOTAwOyIgZD0iTTM2LjcxLDU2LjQ1YzAsMy4wNy04LjIzLDUuNTItMTguMjksNS41MiAgICAgIEM4LjM1LDYxLjk3LDAsNTkuNTYsMCw1Ni40NXM4LjIzLTUuNTIsMTguMjktNS41MkMyOC4zNiw1MC45MywzNi43MSw1My4zOCwzNi43MSw1Ni40NXoiLz4mI3hhOwkJCTwvZz4mI3hhOwkJCTxnIGlkPSJzaGFwZTM3MTAtMTUiIHRyYW5zZm9ybT0idHJhbnNsYXRlKDQuNjYxNjUsLTQ5LjI5NTMpIj4mI3hhOwkJCQk8dGl0bGUgaWQ9InRpdGxlMTAyNjM1Ij5wYXRoMzY5NDwvdGl0bGU+JiN4YTsJCQkJPGcgaWQ9InNoYWRvdzM3MTAtMTYiPiYjeGE7CQkJCTwvZz4mI3hhOwkJCQk8cGF0aCBpZD0icGF0aDEwMjYzOCIgaW5rc2NhcGU6Y29ubmVjdG9yLWN1cnZhdHVyZT0iMCIgc3R5bGU9ImZpbGw6I0I3RDMzMjsiIGQ9Ik0zMi43OCw2MS45N2MyLjQ2LTAuOTYsMy44Mi0yLjA5LDMuODItMy4zMiAgICAgIGMwLTMuMDctOC4yMy01LjUyLTE4LjMtNS41MkM4LjI0LDUzLjEzLDAsNTUuNTgsMCw1OC42NWMwLDEuMjMsMS40OCwyLjQ2LDMuODEsMy4zMmMzLjMyLTEuMzYsOC41OC0yLjA5LDE0LjQ5LTIuMDkgICAgICBjNC45MS0wLjEsOS44MSwwLjYsMTQuNDksMi4wOUgzMi43OHoiLz4mI3hhOwkJCQk8cGF0aCBpZD0icGF0aDEwMjY0MCIgaW5rc2NhcGU6Y29ubmVjdG9yLWN1cnZhdHVyZT0iMCIgc3R5bGU9ImZpbGw6bm9uZTsiIGQ9Ik0zMi43OCw2MS45N2MyLjQ2LTAuOTYsMy44Mi0yLjA5LDMuODItMy4zMiAgICAgIGMwLTMuMDctOC4yMy01LjUyLTE4LjMtNS41MkM4LjI0LDUzLjEzLDAsNTUuNTgsMCw1OC42NWMwLDEuMjMsMS40OCwyLjQ2LDMuODEsMy4zMmMzLjMyLTEuMzYsOC41OC0yLjA5LDE0LjQ5LTIuMDkgICAgICBjNC45MS0wLjEsOS44MSwwLjYsMTQuNDksMi4wOSIvPiYjeGE7CQkJPC9nPiYjeGE7CQkJPGcgaWQ9Imdyb3VwMzcxMS0xOSIgdHJhbnNmb3JtPSJ0cmFuc2xhdGUoNy41NjkyMywtNy40NjQzNikiPiYjeGE7CQkJCTx0aXRsZSBpZD0idGl0bGUxMDI2NDMiPkxheWVyXzM8L3RpdGxlPiYjeGE7CQkJCTxnIGlkPSJzaGFwZTM3MTItMjAiIHRyYW5zZm9ybT0idHJhbnNsYXRlKDAuMDU3MTk4MikiPiYjeGE7CQkJCQk8dGl0bGUgaWQ9InRpdGxlMTAyNjQ1Ij5wYXRoMzY5NjwvdGl0bGU+JiN4YTsJCQkJCTxnIGlkPSJzaGFkb3czNzEyLTIxIj4mI3hhOwkJCQkJPC9nPiYjeGE7CQkJCQk8cGF0aCBpZD0icGF0aDEwMjY0OCIgaW5rc2NhcGU6Y29ubmVjdG9yLWN1cnZhdHVyZT0iMCIgc3R5bGU9ImZpbGw6IzMzNjc5MDsiIGQ9Ik0yOC4zMiw1MC4yM2MtMy42NSwwLjc2LTMuOTEtMC40OC0zLjkxLTAuNDggICAgICAgYzMuODItNS43Miw1LjQ4LTEzLDQuMDgtMTQuNzdjLTMuODEtNC44NS0xMC4zNy0yLjU1LTEwLjQ4LTIuNWMtMC44LTAuMTYtMS42Mi0wLjI1LTIuNDQtMC4yNmMtMS4zNy0wLjA2LTIuNzIsMC4zNS0zLjgyLDEuMTYgICAgICAgYzAsMC0xMS43NS00LjgyLTExLjI0LDYuMDhjMC4xMiwyLjMyLDMuMywxNy41NSw3LjEyLDEyLjk2YzEuNC0xLjY4LDIuNzQtMy4xMSwyLjc0LTMuMTFjMC42OCwwLjQ2LDEuNSwwLjY3LDIuMzIsMC41OSAgICAgICBsMC4wNy0wLjA2Yy0wLjAzLDAuMjItMC4wMywwLjQ0LDAsMC42NmMtMC45NiwxLjExLTAuNywxLjMtMi42NywxLjdjLTEuOTgsMC40LTAuODIsMS4xNC0wLjA2LDEuMzMgICAgICAgYzEuNjcsMC41NCwzLjQ5LTAuMDUsNC41Mi0xLjQ3bC0wLjA2LDAuMjNjMC4zOSwwLjMxLDAuNjYsMi4wMSwwLjYxLDMuNTZjLTAuMTMsMS4xNS0wLjA1LDIuMzEsMC4yMywzLjQzICAgICAgIGMwLjMsMC44MywwLjYxLDIuNjksMy4yLDIuMTRjMi4xNy0wLjQ3LDMuMjktMS42NywzLjQ0LTMuNjhjMC4xMS0xLjQyLDAuMzctMS4yMSwwLjM4LTIuNDhsMC4yMS0wLjYgICAgICAgYzAuMjItMS45MSwwLTIuNTYsMS4zNy0yLjI3aDAuMzJjMS4wMywwLjA0LDIuMDYtMC4xMywzLjAyLTAuNTFjMS42Mi0wLjc1LDIuNTktMi4wMSwwLjk2LTEuNjhMMjguMzIsNTAuMjN6Ii8+JiN4YTsJCQkJPC9nPiYjeGE7CQkJCTxnIGlkPSJzaGFwZTM3MTMtMjMiIHRyYW5zZm9ybT0idHJhbnNsYXRlKDE0LjcyODUsLTAuNDk1NzE4KSI+JiN4YTsJCQkJCTx0aXRsZSBpZD0idGl0bGUxMDI2NTEiPnBhdGgzNjk4PC90aXRsZT4mI3hhOwkJCQkJPGcgaWQ9InNoYWRvdzM3MTMtMjQiPiYjeGE7CQkJCQk8L2c+JiN4YTsJCQkJCTxwYXRoIGlkPSJwYXRoMTAyNjU0IiBpbmtzY2FwZTpjb25uZWN0b3ItY3VydmF0dXJlPSIwIiBzdHlsZT0iZmlsbDpub25lOyIgZD0iTTAuMSw1MS44M2MtMC4xLDMuNiwwLDcuMjIsMC4zOSw4LjEgICAgICAgYzAuMzcsMS41NCwxLjkyLDIuNDgsMy40NSwyLjExQzQuMDIsNjIuMDIsNC4xLDYyLDQuMTgsNjEuOTdjMi4xNy0wLjQ3LDIuOTYtMS4zNywzLjMtMy4zNWMwLjI1LTEuNDYsMC43NC01LjUxLDAuOC02LjM0ICAgICAgIEwwLjEsNTEuODN6Ii8+JiN4YTsJCQkJCSYjeGE7CQkJCQkJPHBhdGggaWQ9InBhdGgxMDI2NTYiIGlua3NjYXBlOmNvbm5lY3Rvci1jdXJ2YXR1cmU9IjAiIHN0eWxlPSJmaWxsOm5vbmU7c3Ryb2tlOiNGRkZGRkY7c3Ryb2tlLXdpZHRoOjAuNzY1O3N0cm9rZS1saW5lY2FwOnJvdW5kO3N0cm9rZS1saW5lam9pbjpyb3VuZDtzdHJva2UtbWl0ZXJsaW1pdDozOyIgZD0iICAgICAgIE0wLjEsNTEuODNjLTAuMSwzLjYsMCw3LjIyLDAuMzksOC4xYzAuMzcsMS41NCwxLjkyLDIuNDgsMy40NSwyLjExQzQuMDIsNjIuMDIsNC4xLDYyLDQuMTgsNjEuOTcgICAgICAgYzIuMTctMC40NywyLjk2LTEuMzcsMy4zLTMuMzVjMC4yNS0xLjQ2LDAuNzQtNS41MSwwLjgtNi4zNCIvPiYjeGE7CQkJCTwvZz4mI3hhOwkJCQk8ZyBpZD0ic2hhcGUzNzE0LTI3IiB0cmFuc2Zvcm09InRyYW5zbGF0ZSgwLC00Ljk5NTMxKSI+JiN4YTsJCQkJCTx0aXRsZSBpZD0idGl0bGUxMDI2NTkiPnBhdGgzNzAwPC90aXRsZT4mI3hhOwkJCQkJPGcgaWQ9InNoYWRvdzM3MTQtMjgiPiYjeGE7CQkJCQk8L2c+JiN4YTsJCQkJCTxwYXRoIGlkPSJwYXRoMTAyNjYyIiBpbmtzY2FwZTpjb25uZWN0b3ItY3VydmF0dXJlPSIwIiBzdHlsZT0iZmlsbDpub25lOyIgZD0iTTExLjc0LDM4LjI3YzAsMC0xMS43NC00Ljc3LTExLjE5LDYuMTEgICAgICAgYzAuMTEsMi4zNSwzLjMyLDE3LjU5LDcuMTMsMTIuOTVjMS40LTEuNjcsMi42Ni0zLDIuNjYtM0wxMS43NCwzOC4yN3oiLz4mI3hhOwkJCQkJJiN4YTsJCQkJCQk8cGF0aCBpZD0icGF0aDEwMjY2NCIgaW5rc2NhcGU6Y29ubmVjdG9yLWN1cnZhdHVyZT0iMCIgc3R5bGU9ImZpbGw6bm9uZTtzdHJva2U6I0ZGRkZGRjtzdHJva2Utd2lkdGg6MC43NjU7c3Ryb2tlLWxpbmVjYXA6cm91bmQ7c3Ryb2tlLWxpbmVqb2luOnJvdW5kO3N0cm9rZS1taXRlcmxpbWl0OjM7IiBkPSIgICAgICAgTTExLjc0LDM4LjI3YzAsMC0xMS43NC00Ljc3LTExLjE5LDYuMTFjMC4xMSwyLjM1LDMuMzIsMTcuNTksNy4xMywxMi45NWMxLjQtMS42NywyLjY2LTMsMi42Ni0zIi8+JiN4YTsJCQkJPC9nPiYjeGE7CQkJCTxnIGlkPSJzaGFwZTM3MTUtMzEiIHRyYW5zZm9ybT0idHJhbnNsYXRlKDE3LjY1NTIsLTEyLjI2OSkiPiYjeGE7CQkJCQk8dGl0bGUgaWQ9InRpdGxlMTAyNjY3Ij5wYXRoMzcwMjwvdGl0bGU+JiN4YTsJCQkJCTxnIGlkPSJzaGFkb3czNzE1LTMyIj4mI3hhOwkJCQkJPC9nPiYjeGE7CQkJCQk8cGF0aCBpZD0icGF0aDEwMjY3MCIgaW5rc2NhcGU6Y29ubmVjdG9yLWN1cnZhdHVyZT0iMCIgc3R5bGU9ImZpbGw6bm9uZTsiIGQ9Ik0wLjQxLDQ0LjdDMCw0NC44Myw2LjkzLDQyLjE3LDEwLjksNDcuMiAgICAgICBjMS4zOSwxLjc4LTAuMjIsOS4wNS00LjA4LDE0Ljc3TDAuNDEsNDQuN3oiLz4mI3hhOwkJCQkJJiN4YTsJCQkJCQk8cGF0aCBpZD0icGF0aDEwMjY3MiIgaW5rc2NhcGU6Y29ubmVjdG9yLWN1cnZhdHVyZT0iMCIgc3R5bGU9ImZpbGw6bm9uZTtzdHJva2U6I0ZGRkZGRjtzdHJva2Utd2lkdGg6MC43NjU7c3Ryb2tlLWxpbmVjYXA6cm91bmQ7c3Ryb2tlLWxpbmVqb2luOnJvdW5kO3N0cm9rZS1taXRlcmxpbWl0OjM7IiBkPSIgICAgICAgTTAuNDEsNDQuN0MwLDQ0LjgzLDYuOTMsNDIuMTcsMTAuOSw0Ny4yYzEuMzksMS43OC0wLjIyLDkuMDUtNC4wOCwxNC43NyIvPiYjeGE7CQkJCTwvZz4mI3hhOwkJCQk8ZyBpZD0ic2hhcGUzNzE2LTM1IiB0cmFuc2Zvcm09InRyYW5zbGF0ZSg4LjU0MTU5LC05LjMzMjg0KSI+JiN4YTsJCQkJCTx0aXRsZSBpZD0idGl0bGUxMDI2NzUiPnBhdGgzNzA0PC90aXRsZT4mI3hhOwkJCQkJPGcgaWQ9InNoYWRvdzM3MTYtMzYiPiYjeGE7CQkJCQk8L2c+JiN4YTsJCQkJCTxwYXRoIGlkPSJwYXRoMTAyNjc4IiBpbmtzY2FwZTpjb25uZWN0b3ItY3VydmF0dXJlPSIwIiBzdHlsZT0iZmlsbDpub25lOyIgZD0iTTE1LjkxLDU5LjAzYzAsMCwwLjI1LDEuMjQsMy45MSwwLjQ5ICAgICAgIGMxLjYtMC4zMywwLjY0LDAuOTUtMC45NSwxLjY4Yy0xLjM0LDAuNjItNC4zMiwwLjc3LTQuMzctMC4wOGMtMC4xMi0yLjIsMS41Ny0xLjU0LDEuNDUtMi4wOWMtMC4xMy0wLjU1LTAuODctMC45NS0xLjM3LTIuMiAgICAgICBjLTAuNDQtMS4wNi02LjAyLTkuMjEsMS41NC04YzAuMjgtMC4wNi0xLjk3LTcuMTktOS4wNS03LjNDMCw0MS40MSwwLjIsNTAuMjMsMC4yLDUwLjIzTDE1LjkxLDU5LjAzeiIvPiYjeGE7CQkJCQkmI3hhOwkJCQkJCTxwYXRoIGlkPSJwYXRoMTAyNjgwIiBpbmtzY2FwZTpjb25uZWN0b3ItY3VydmF0dXJlPSIwIiBzdHlsZT0iZmlsbDpub25lO3N0cm9rZTojRkZGRkZGO3N0cm9rZS13aWR0aDowLjc2NTtzdHJva2UtbGluZWNhcDpyb3VuZDtzdHJva2UtbGluZWpvaW46cm91bmQ7c3Ryb2tlLW1pdGVybGltaXQ6MzsiIGQ9IiAgICAgICBNMTUuOTEsNTkuMDNjMCwwLDAuMjUsMS4yNCwzLjkxLDAuNDljMS42LTAuMzMsMC42NCwwLjk1LTAuOTUsMS42OGMtMS4zNCwwLjYyLTQuMzIsMC43Ny00LjM3LTAuMDggICAgICAgYy0wLjEyLTIuMiwxLjU3LTEuNTQsMS40NS0yLjA5Yy0wLjEzLTAuNTUtMC44Ny0wLjk1LTEuMzctMi4yYy0wLjQ0LTEuMDYtNi4wMi05LjIxLDEuNTQtOGMwLjI4LTAuMDYtMS45Ny03LjE5LTkuMDUtNy4zICAgICAgIEMwLDQxLjQxLDAuMiw1MC4yMywwLjIsNTAuMjMiLz4mI3hhOwkJCQk8L2c+JiN4YTsJCQkJPGcgaWQ9InNoYXBlMzcxNy0zOSIgdHJhbnNmb3JtPSJ0cmFuc2xhdGUoOC4yMTc0NywtOC41MDM0NikiPiYjeGE7CQkJCQk8dGl0bGUgaWQ9InRpdGxlMTAyNjgzIj5wYXRoMzcwNjwvdGl0bGU+JiN4YTsJCQkJCTxnIGlkPSJzaGFkb3czNzE3LTQwIj4mI3hhOwkJCQkJPC9nPiYjeGE7CQkJCQkmI3hhOwkJCQkJCTxwYXRoIGlkPSJwYXRoMTAyNjg2IiBpbmtzY2FwZTpjb25uZWN0b3ItY3VydmF0dXJlPSIwIiBzdHlsZT0iZmlsbDpub25lO3N0cm9rZTojRkZGRkZGO3N0cm9rZS13aWR0aDowLjc2NTtzdHJva2UtbGluZWNhcDpyb3VuZDtzdHJva2UtbGluZWpvaW46cm91bmQ7c3Ryb2tlLW1pdGVybGltaXQ6MzsiIGQ9IiAgICAgICBNNC42NCw1OC45NGMtMC45NSwxLjEtMC42OSwxLjI5LTIuNjcsMS42OWMtMS45NywwLjQtMC44MiwxLjE1LTAuMDUsMS4zNGMxLjY2LDAuNTMsMy40OC0wLjA2LDQuNTEtMS40NyAgICAgICBjMC4zNS0wLjY2LDAuMS0xLjQ4LTAuNTYtMS44M0g1LjgyYy0wLjQxLTAuMjMtMC45My0wLjExLTEuMTksMC4yOUw0LjY0LDU4Ljk0eiIvPiYjeGE7CQkJCTwvZz4mI3hhOwkJCQk8ZyBpZD0ic2hhcGUzNzE4LTQyIiB0cmFuc2Zvcm09InRyYW5zbGF0ZSg4LjYzNjkyLC0xMS41MzUpIj4mI3hhOwkJCQkJPHRpdGxlIGlkPSJ0aXRsZTEwMjY4OSI+cGF0aDM3MDg8L3RpdGxlPiYjeGE7CQkJCQk8ZyBpZD0ic2hhZG93MzcxOC00MyI+JiN4YTsJCQkJCTwvZz4mI3hhOwkJCQkJPHBhdGggaWQ9InBhdGgxMDI2OTIiIGlua3NjYXBlOmNvbm5lY3Rvci1jdXJ2YXR1cmU9IjAiIHN0eWxlPSJmaWxsOm5vbmU7IiBkPSJNNC4xNiw2MS45N2MwLTAuOCwwLjE4LTEuNiwwLjU0LTIuMzIgICAgICAgYzAuNTEtMS4zNSwxLjY2LTIuNzEsMC43My03Yy0wLjY5LTMuMTktNS4zMy0wLjY2LTUuMzMtMC4yMmMwLjExLDEuNDIsMC4wNywyLjg0LTAuMSw0LjI1Yy0wLjQsMi4xOCwxLjA0LDQuMjYsMy4yMiw0LjY2ICAgICAgIGMwLjI5LDAuMDUsMC41OSwwLjA3LDAuODgsMC4wNkw0LjE2LDYxLjk3eiIvPiYjeGE7CQkJCQkmI3hhOwkJCQkJCTxwYXRoIGlkPSJwYXRoMTAyNjk0IiBpbmtzY2FwZTpjb25uZWN0b3ItY3VydmF0dXJlPSIwIiBzdHlsZT0iZmlsbDpub25lO3N0cm9rZTojRkZGRkZGO3N0cm9rZS13aWR0aDowLjc2NTtzdHJva2UtbGluZWNhcDpyb3VuZDtzdHJva2UtbGluZWpvaW46cm91bmQ7c3Ryb2tlLW1pdGVybGltaXQ6MzsiIGQ9IiAgICAgICBNNC4xNiw2MS45N2MwLTAuOCwwLjE4LTEuNiwwLjU0LTIuMzJjMC41MS0xLjM1LDEuNjYtMi43MSwwLjczLTdjLTAuNjktMy4xOS01LjMzLTAuNjYtNS4zMy0wLjIyICAgICAgIGMwLjExLDEuNDIsMC4wNywyLjg0LTAuMSw0LjI1Yy0wLjQsMi4xOCwxLjA0LDQuMjYsMy4yMiw0LjY2YzAuMjksMC4wNSwwLjU5LDAuMDcsMC44OCwwLjA2Ii8+JiN4YTsJCQkJPC9nPiYjeGE7CQkJCTxnIGlkPSJzaGFwZTM3MTktNDYiIHRyYW5zZm9ybT0idHJhbnNsYXRlKDExLjY4NzUsLTIwLjU0MzcpIj4mI3hhOwkJCQkJPHRpdGxlIGlkPSJ0aXRsZTEwMjY5NyI+cGF0aDM3MTA8L3RpdGxlPiYjeGE7CQkJCQk8ZyBpZD0ic2hhZG93MzcxOS00NyI+JiN4YTsJCQkJCTwvZz4mI3hhOwkJCQkJJiN4YTsJCQkJCQk8cGF0aCBpZD0icGF0aDEwMjcwMCIgaW5rc2NhcGU6Y29ubmVjdG9yLWN1cnZhdHVyZT0iMCIgc3R5bGU9ImZpbGw6I0ZGRkZGRjtzdHJva2U6I0ZGRkZGRjtzdHJva2Utd2lkdGg6MC40MTI1O3N0cm9rZS1saW5lY2FwOnNxdWFyZTtzdHJva2UtbWl0ZXJsaW1pdDozOyIgZD0iICAgICAgIE0wLDYxLjM3YzAsMC4xNSwwLjI4LDAuNTQsMC42NSwwLjZjMC4zLDAuMDQsMC41OS0wLjEyLDAuNzItMC40YzAtMC4xNS0wLjI3LTAuMzItMC42NS0wLjM2Yy0wLjM3LTAuMDUtMC43LDAtMC43MiwwLjE3VjYxLjM3ICAgICAgIHoiLz4mI3hhOwkJCQk8L2c+JiN4YTsJCQkJPGcgaWQ9InNoYXBlMzcyMC00OSIgdHJhbnNmb3JtPSJ0cmFuc2xhdGUoMjEuODk3NCwtMjAuODQ4NykiPiYjeGE7CQkJCQk8dGl0bGUgaWQ9InRpdGxlMTAyNzAzIj5wYXRoMzcxMjwvdGl0bGU+JiN4YTsJCQkJCTxnIGlkPSJzaGFkb3czNzIwLTUwIj4mI3hhOwkJCQkJPC9nPiYjeGE7CQkJCQkmI3hhOwkJCQkJCTxwYXRoIGlkPSJwYXRoMTAyNzA2IiBpbmtzY2FwZTpjb25uZWN0b3ItY3VydmF0dXJlPSIwIiBzdHlsZT0iZmlsbDojRkZGRkZGO3N0cm9rZTojRkZGRkZGO3N0cm9rZS13aWR0aDowLjIxO3N0cm9rZS1saW5lY2FwOnNxdWFyZTtzdHJva2UtbWl0ZXJsaW1pdDozOyIgZD0iICAgICAgIE0xLjM3LDYxLjM3YzAsMC4xNS0wLjI3LDAuNTQtMC42NSwwLjZjLTAuMywwLjA0LTAuNTktMC4xMi0wLjcyLTAuNGMwLTAuMTUsMC4yOC0wLjMyLDAuNjUtMC4zNiAgICAgICBDMS4wMiw2MS4xNiwxLjM1LDYxLjIxLDEuMzcsNjEuMzdMMS4zNyw2MS4zN3oiLz4mI3hhOwkJCQk8L2c+JiN4YTsJCQkJPGcgaWQ9InNoYXBlMzcyMS01MiIgdHJhbnNmb3JtPSJ0cmFuc2xhdGUoMjMuODEzNSwtMTMuMzY1MykiPiYjeGE7CQkJCQk8dGl0bGUgaWQ9InRpdGxlMTAyNzA5Ij5wYXRoMzcxNDwvdGl0bGU+JiN4YTsJCQkJCTxnIGlkPSJzaGFkb3czNzIxLTUzIj4mI3hhOwkJCQkJPC9nPiYjeGE7CQkJCQk8cGF0aCBpZD0icGF0aDEwMjcxMiIgaW5rc2NhcGU6Y29ubmVjdG9yLWN1cnZhdHVyZT0iMCIgc3R5bGU9ImZpbGw6bm9uZTsiIGQ9Ik0wLjgxLDUyLjg2YzAuMDcsMS4xNy0wLjI1LDEuOTEtMC4yOSwzLjIgICAgICAgYy0wLjA1LDEuOCwwLjg2LDMuODEtMC41Miw1LjkxTDAuODEsNTIuODZ6Ii8+JiN4YTsJCQkJCSYjeGE7CQkJCQkJPHBhdGggaWQ9InBhdGgxMDI3MTQiIGlua3NjYXBlOmNvbm5lY3Rvci1jdXJ2YXR1cmU9IjAiIHN0eWxlPSJmaWxsOm5vbmU7c3Ryb2tlOiNGRkZGRkY7c3Ryb2tlLXdpZHRoOjAuNzY1O3N0cm9rZS1saW5lY2FwOnJvdW5kO3N0cm9rZS1saW5lam9pbjpyb3VuZDtzdHJva2UtbWl0ZXJsaW1pdDozOyIgZD0iICAgICAgIE0wLjgxLDUyLjg2YzAuMDcsMS4xNy0wLjI1LDEuOTEtMC4yOSwzLjJjLTAuMDUsMS44LDAuODYsMy44MS0wLjUyLDUuOTEiLz4mI3hhOwkJCQk8L2c+JiN4YTsJCQk8L2c+JiN4YTsJCTwvZz4mI3hhOwk8L2c+JiN4YTs8L2c+JiN4YTs8L3N2Zz4=;" vertex="1" parent="AaKXk8wZwZUjWJwKBfMZ-68">
          <mxGeometry x="20" width="30.65" height="40" as="geometry" />
        </mxCell>
      </root>
    </mxGraphModel>
  </diagram>
</mxfile>
